<svg width="41" height="40" viewBox="0 0 41 40" fill="none" xmlns="http://www.w3.org/2000/svg">
  <path
    d="M20.5 30L19.9709 31.1325C20.3062 31.2892 20.6938 31.2892 21.0291 31.1325L20.5 30ZM20.5 13.5983L19.3547 14.0991C19.5537 14.5542 20.0033 14.8483 20.5 14.8483C20.9967 14.8483 21.4463 14.5542 21.6453 14.0991L20.5 13.5983ZM7.75 16C7.75 20.8811 10.9872 24.7002 13.9447 27.1913C15.449 28.4584 16.947 29.4385 18.0662 30.1013C18.6271 30.4335 19.0965 30.6881 19.4285 30.861C19.5946 30.9475 19.7266 31.0137 19.8189 31.0591C19.865 31.0818 19.9012 31.0993 19.9268 31.1115C19.9395 31.1177 19.9497 31.1225 19.9571 31.126C19.9608 31.1277 19.9638 31.1292 19.9661 31.1302C19.9672 31.1308 19.9682 31.1312 19.969 31.1316C19.9694 31.1318 19.9699 31.132 19.9701 31.1321C19.9705 31.1323 19.9709 31.1325 20.5 30C21.0291 28.8675 21.0294 28.8676 21.0296 28.8678C21.0297 28.8678 21.0299 28.8679 21.0299 28.8679C21.03 28.8679 21.03 28.8679 21.0297 28.8678C21.0293 28.8676 21.0281 28.867 21.0263 28.8662C21.0226 28.8644 21.0162 28.8614 21.0073 28.8571C20.9893 28.8485 20.9609 28.8348 20.9228 28.816C20.8466 28.7785 20.7316 28.7209 20.5832 28.6436C20.2864 28.489 19.8572 28.2565 19.3401 27.9502C18.303 27.336 16.926 26.4338 15.5553 25.2792C12.7628 22.9272 10.25 19.7463 10.25 16H7.75ZM20.5 30C21.0291 31.1325 21.0295 31.1323 21.0299 31.1321C21.0301 31.132 21.0306 31.1318 21.031 31.1316C21.0318 31.1312 21.0328 31.1308 21.0339 31.1302C21.0362 31.1292 21.0392 31.1277 21.0429 31.126C21.0503 31.1225 21.0605 31.1177 21.0732 31.1115C21.0988 31.0993 21.135 31.0818 21.1811 31.0591C21.2734 31.0137 21.4054 30.9475 21.5715 30.861C21.9035 30.6881 22.3729 30.4335 22.9338 30.1013C24.053 29.4385 25.551 28.4584 27.0553 27.1913C30.0128 24.7002 33.25 20.8811 33.25 16H30.75C30.75 19.7463 28.2372 22.9272 25.4447 25.2792C24.074 26.4338 22.697 27.336 21.6599 27.9502C21.1428 28.2565 20.7136 28.489 20.4168 28.6436C20.2684 28.7209 20.1534 28.7785 20.0772 28.816C20.0391 28.8348 20.0107 28.8485 19.9927 28.8571C19.9838 28.8614 19.9774 28.8644 19.9737 28.8662C19.9719 28.867 19.9707 28.8676 19.9703 28.8678C19.97 28.8679 19.97 28.8679 19.9701 28.8679C19.9701 28.8679 19.9703 28.8678 19.9704 28.8678C19.9706 28.8676 19.9709 28.8675 20.5 30ZM26 11.25C28.6234 11.25 30.75 13.3766 30.75 16H33.25C33.25 11.9959 30.0041 8.75 26 8.75V11.25ZM21.6453 14.0991C22.3797 12.4196 24.0547 11.25 26 11.25V8.75C23.0259 8.75 20.4728 10.5406 19.3547 13.0975L21.6453 14.0991ZM15 11.25C16.9453 11.25 18.6203 12.4196 19.3547 14.0991L21.6453 13.0975C20.5272 10.5406 17.9741 8.75 15 8.75V11.25ZM10.25 16C10.25 13.3766 12.3766 11.25 15 11.25V8.75C10.9959 8.75 7.75 11.9959 7.75 16H10.25Z"
    fill="#111111" />
</svg>