<svg width="53" height="28" viewBox="0 0 53 28" fill="none" xmlns="http://www.w3.org/2000/svg">
<rect x="0.166748" width="52" height="28" fill="black" fill-opacity="0.01"/>
<path fill-rule="evenodd" clip-rule="evenodd" d="M16.8806 4.6665V23.3332H35.452V23.313V4.6665H16.8806Z" fill="white"/>
<path fill-rule="evenodd" clip-rule="evenodd" d="M16.6519 23.5445H35.6103V4.45508H16.6519V23.5445Z" fill="#0090D0"/>
<path fill-rule="evenodd" clip-rule="evenodd" d="M16.6519 4.45459L21.389 9.22927L26.131 4.45459H16.6519Z" fill="#0090D0"/>
<path fill-rule="evenodd" clip-rule="evenodd" d="M16.6519 4.45459V13.9985L21.389 9.22927L16.6519 4.45459Z" fill="#3597D3"/>
<path fill-rule="evenodd" clip-rule="evenodd" d="M16.6519 13.9987H26.131L21.3928 9.22559L16.6519 13.9987Z" fill="#0090D0"/>
<path fill-rule="evenodd" clip-rule="evenodd" d="M26.1324 4.45459L21.3943 9.22541L26.1324 13.9985V4.45459Z" fill="#0081C8"/>
<path fill-rule="evenodd" clip-rule="evenodd" d="M26.1284 4.45459V13.9985L31.3412 8.7527L26.1284 4.45459Z" fill="#0071BA"/>
<path fill-rule="evenodd" clip-rule="evenodd" d="M26.1284 13.9987H35.6078L30.8707 9.22559L26.1284 13.9987Z" fill="#004C97"/>
<path fill-rule="evenodd" clip-rule="evenodd" d="M16.6519 13.9985L21.389 18.7748L26.131 13.9985H16.6519Z" fill="#0081C8"/>
<path fill-rule="evenodd" clip-rule="evenodd" d="M16.6519 23.5456L21.389 18.7748L16.6519 13.9985V23.5456Z" fill="#0071BA"/>
<path fill-rule="evenodd" clip-rule="evenodd" d="M16.6519 23.5445H26.131L21.3928 18.7695L16.6519 23.5445Z" fill="#0066B2"/>
<path fill-rule="evenodd" clip-rule="evenodd" d="M21.3943 18.7691L26.1324 23.544V13.9985L21.3943 18.7691Z" fill="#00529B"/>
<path fill-rule="evenodd" clip-rule="evenodd" d="M26.1284 13.9985L30.8666 18.7748L35.6078 13.9985H26.1284Z" fill="#1B3280"/>
<path fill-rule="evenodd" clip-rule="evenodd" d="M26.1284 23.5456L30.8666 18.7748L26.1284 13.9985V23.5456Z" fill="#004C97"/>
<path fill-rule="evenodd" clip-rule="evenodd" d="M26.1284 23.5445H35.6078L30.8707 18.7695L26.1284 23.5445Z" fill="#1B3280"/>
<path fill-rule="evenodd" clip-rule="evenodd" d="M30.874 18.7691L35.6111 23.544V13.9985L30.874 18.7691Z" fill="#1B3280"/>
<path fill-rule="evenodd" clip-rule="evenodd" d="M26.1284 4.45459L30.8666 9.22927L35.6078 4.45459H26.1284Z" fill="#0066B2"/>
<path fill-rule="evenodd" clip-rule="evenodd" d="M35.6111 4.45459L30.874 9.22541L35.6111 13.9985V4.45459Z" fill="#00529B"/>
<path fill-rule="evenodd" clip-rule="evenodd" d="M20.3286 19.8654L23.6892 23.2479L29.5406 17.4463L35.6101 23.5227V16.3869L29.5406 10.5664L20.3286 19.8654Z" fill="white"/>
</svg>
