<svg width="53" height="28" viewBox="0 0 53 28" fill="none" xmlns="http://www.w3.org/2000/svg">
<rect x="0.166748" width="52" height="28" fill="black" fill-opacity="0.01"/>
<path fill-rule="evenodd" clip-rule="evenodd" d="M38.7464 14.2444C38.7459 14.2444 38.5205 14.1017 38.5205 14.1017C37.7536 13.3299 36.6856 12.9953 35.2587 13.0787C34.0702 13.1525 33.1278 13.626 32.4078 14.0688C32.4078 14.0576 32.4063 14.0474 32.4063 14.0356C32.4063 13.6604 32.4491 13.2536 32.4901 12.8585C32.5329 12.457 32.5752 12.0491 32.5752 11.6619C32.5752 11.2673 32.5301 10.8944 32.3954 10.5736C32.3615 10.4917 32.2868 10.4424 32.1913 10.4424C31.8078 10.4511 31.0582 10.716 30.8761 10.876L30.7776 11.0948C30.7695 11.5233 30.6773 12.7201 30.5831 12.8654C30.5874 12.8603 30.5319 13.0098 30.5319 13.0098C30.3711 14.7194 30.3673 16.2212 30.5165 17.5114C30.5337 17.6396 30.7794 17.8351 30.9703 17.9045C31.1777 17.9826 31.8322 17.8065 32.208 17.6623C32.2042 17.6635 32.3511 17.6408 32.3511 17.6408C32.4701 17.6276 32.5398 17.5262 32.5329 17.3899C32.5329 17.3874 32.542 17.0188 32.542 17.0188C32.8143 15.905 33.9152 14.577 35.2159 14.3769C35.9517 14.2602 36.5324 14.4486 36.9913 14.9537C37.0538 15.0446 37.1873 15.845 36.7028 16.7664C36.3409 17.4489 35.6196 18.0214 34.6712 18.3815C33.7711 18.7246 32.7814 18.8652 31.5604 18.8208C31.511 18.7879 30.4159 18.0428 30.4159 18.0428C29.4485 17.3575 28.2463 16.505 27.1532 16.087C26.963 16.014 26.6183 15.7268 26.4127 15.5545L26.2992 15.4614C25.6699 14.9517 24.4735 14.1487 23.5108 13.5019C23.5108 13.5019 23.0778 13.2092 22.9922 13.1525C22.9937 13.116 22.996 13.043 22.996 13.043C23.0221 13.0119 23.6266 12.6474 23.6266 12.6474C24.4727 12.1489 24.8627 11.9034 24.9473 11.7775C24.9299 11.7967 25.0595 11.7104 25.0595 11.7104C25.0653 11.7068 27.1568 10.5144 27.1568 10.5144C29.1681 9.39925 31.4497 8.13429 32.6484 6.88414C32.6497 6.88312 32.7067 6.69425 32.7067 6.69425L32.7322 6.52426C32.8107 6.25677 32.8176 6.05054 32.751 5.81368C32.7322 5.74604 32.6702 5.66769 32.5876 5.65186C31.6528 5.55947 30.4453 6.12379 29.3484 7.16108C29.0997 7.39691 28.8921 7.51049 28.672 7.63148L28.5038 7.72566C27.2925 8.41965 24.5652 10.1246 23.1381 11.0458C23.2323 9.49853 23.5164 7.29788 23.8644 5.46299L23.8267 5.24348C23.8226 5.23608 23.6793 4.96579 23.6793 4.96579L23.5676 4.76721L23.5341 4.75904C23.2505 4.6133 23.0175 4.67226 22.8468 4.71744C22.8473 4.71744 22.5604 4.82234 22.5604 4.82234L22.182 4.96119C22.1068 4.97676 22.0523 5.02219 22.0232 5.09647C21.3414 6.75729 20.7724 9.48858 20.6384 11.6749C19.2754 10.8005 18.0156 10.1731 17.3987 9.86914L17.381 9.8602L17.3068 9.84387C17.0862 9.81452 16.8147 9.65065 16.5521 9.49036C16.5267 9.47428 16.0354 9.1532 16.0354 9.1532L15.2427 8.64196C15.2513 8.64604 15.0348 8.59423 15.0348 8.59423C14.6939 8.65242 14.0423 9.09526 13.8483 9.39618C13.8214 9.43549 13.8123 9.47913 13.8123 9.52431C13.8123 9.58735 13.8306 9.65244 13.8483 9.71216L13.8835 9.87552L13.9207 9.97455C14.2996 10.3658 15.2567 11.0197 16.1962 11.5284L17.2847 12.1093L18.9512 13.0279C18.9517 13.0348 19.2364 13.2536 19.2364 13.2536C19.2374 13.2536 19.4321 13.3692 19.4321 13.3692C19.4321 13.3692 19.4531 13.3812 19.4661 13.3904C19.0224 13.6898 16.4376 15.4305 16.4376 15.4305L14.8428 16.4938C14.6929 16.5982 14.0618 16.8828 13.9245 16.9389C13.5786 17.0793 13.3175 17.2978 13.208 17.5347L13.1663 17.6265L13.2096 17.6883L13.3306 17.7815C13.3253 17.7812 13.4937 17.8894 13.4937 17.8894L13.669 18.0114C13.674 18.0122 13.8354 18.0354 13.8354 18.0354C14.1157 18.0474 14.5308 17.8866 15.3058 17.5441C16.0187 17.2263 17.9549 16.0487 18.781 15.5474L19.1353 15.3332C19.2807 15.345 19.4433 15.2212 19.5853 15.1117C19.7512 14.9787 20.1124 14.7551 20.3322 14.6574C20.3383 14.6543 20.4649 14.5841 20.5814 14.5185C20.5804 14.5568 20.5796 14.6142 20.5796 14.6142C20.6174 17.1651 20.7638 19.0196 21.039 20.4484L21.0446 20.474L21.0717 20.5311C21.208 20.734 21.3625 21.3379 21.4992 21.8711L21.815 22.9355C21.8214 22.9475 21.9042 23.0355 21.9042 23.0355C22.0835 23.1575 22.632 23.3706 22.9985 23.3275L23.0904 23.3163L23.1474 23.1856C23.1793 23.0268 23.189 22.8711 23.189 22.6991C23.189 22.5036 23.175 22.2892 23.157 22.0273L23.1335 21.6422C23.0175 19.8616 22.9018 17.2891 22.9018 15.5801C22.9018 15.5323 22.9023 15.49 22.903 15.4438C23.2019 15.6342 24.5158 16.4688 24.5158 16.4688C26.751 17.9285 30.126 20.137 32.1667 20.721C32.2726 20.7529 32.3843 20.7279 32.462 20.6529C32.465 20.6493 32.7766 20.4492 32.7766 20.4492L32.8346 20.4255C32.9521 20.3698 33.0318 20.1705 33.044 19.9533C34.7641 19.8673 37.163 19.1996 38.4457 17.574C38.9424 16.943 39.1663 16.1725 39.1663 15.5099C39.1663 14.9695 39.0168 14.5017 38.7464 14.2444Z" fill="#FBAF17"/>
</svg>
