<svg width="53" height="28" viewBox="0 0 53 28" fill="none" xmlns="http://www.w3.org/2000/svg">
<rect x="0.833252" width="52" height="28" fill="black" fill-opacity="0.01"/>
<mask id="mask0_685_10187" style="mask-type:luminance" maskUnits="userSpaceOnUse" x="15" y="3" width="23" height="22">
<path fill-rule="evenodd" clip-rule="evenodd" d="M15.6907 3.2666H37.9763V24.7332H15.6907V3.2666Z" fill="white"/>
</mask>
<g mask="url(#mask0_685_10187)">
<path fill-rule="evenodd" clip-rule="evenodd" d="M21.1126 3.53403C20.5107 3.83287 20.0624 4.34704 19.8505 4.98178L15.8211 17.0243C15.6076 17.657 15.6576 18.3378 15.9605 18.9389C16.2616 19.5334 16.7791 19.9802 17.4152 20.1918L30.6291 24.6035C31.2698 24.815 31.9538 24.767 32.5548 24.4669C33.1564 24.1647 33.6058 23.6531 33.8151 23.0168L37.8462 10.9779C38.2875 9.66653 37.5699 8.24362 36.2512 7.80677L23.0385 3.39623C22.3966 3.18571 21.717 3.23158 21.1126 3.53403Z" fill="#FEFEFE"/>
</g>
<mask id="mask1_685_10187" style="mask-type:luminance" maskUnits="userSpaceOnUse" x="15" y="3" width="23" height="22">
<path fill-rule="evenodd" clip-rule="evenodd" d="M15.6909 24.7333H37.9766V3.2666H15.6909V24.7333Z" fill="white"/>
</mask>
<g mask="url(#mask1_685_10187)">
<path fill-rule="evenodd" clip-rule="evenodd" d="M21.362 17.5106H22.2726V11.2551H21.362V17.5106ZM27.5726 15.0997C26.855 15.896 25.9601 16.5384 24.9228 16.937L24.3264 17.1665V11.5872L24.9153 11.8144C25.9543 12.2086 26.8514 12.8513 27.5726 13.6439C28.086 12.8223 28.4049 11.8691 28.4701 10.8323C28.6335 8.15756 26.9488 5.70311 24.6346 4.84885L22.7258 4.21711C21.8643 3.93168 20.9472 4.40419 20.663 5.25865L16.6222 17.3075C16.3352 18.1654 16.8186 19.0958 17.6811 19.3776L26.8514 22.4223C27.7863 21.4339 28.3928 20.1239 28.4814 18.6628C28.5624 17.359 28.2206 16.1298 27.5726 15.0997Z" fill="#198FCA"/>
<path fill-rule="evenodd" clip-rule="evenodd" d="M27.0428 14.372C26.5308 13.7751 25.9119 13.2736 25.1973 12.9062V15.8466C25.9119 15.4785 26.5343 14.9709 27.0428 14.372Z" fill="#E43D30"/>
<path fill-rule="evenodd" clip-rule="evenodd" d="M33.7297 17.4893L32.5929 17.4925L30.2542 14.3643L32.6297 11.2369L33.7764 11.2323L31.3955 14.3687L33.7297 17.4893ZM35.9573 8.61043L27.5417 5.81348C28.6721 7.0441 29.3638 8.67893 29.367 10.4692C29.3688 11.8847 28.9251 13.2383 28.1528 14.3714C28.9279 15.5013 29.3742 16.8539 29.3781 18.2692C29.3787 19.9597 28.7678 21.5172 27.7506 22.7232L30.911 23.7721C31.7753 24.058 32.6877 23.5855 32.9752 22.7286L37.018 10.6807C37.3042 9.82423 36.8204 8.89485 35.9573 8.61043Z" fill="#075198"/>
</g>
</svg>
