<svg width="53" height="28" viewBox="0 0 53 28" fill="none" xmlns="http://www.w3.org/2000/svg">
<rect x="0.500732" width="52" height="28" fill="black" fill-opacity="0.01"/>
<path fill-rule="evenodd" clip-rule="evenodd" d="M26.5007 5.76797L30.5722 3.7334L26.5007 11.4359L22.4292 3.7334L26.5007 5.76797ZM31.9309 9.62983L31.9942 9.68496V9.68759C34.6194 11.9661 35.5483 15.6259 34.3254 18.8713C33.1025 22.1167 29.9842 24.2668 26.5005 24.2668C23.0167 24.2668 19.8985 22.1167 18.6755 18.8713C17.4526 15.6259 18.3816 11.9661 21.0067 9.68759L21.07 9.63245L18.1674 8.41696V4.35569L23.2074 6.49527L26.0017 11.7642C23.7688 12.0255 22.1278 13.9734 22.2594 16.2065C22.391 18.4395 24.2495 20.1833 26.4978 20.1833C28.7461 20.1833 30.6046 18.4395 30.7362 16.2065C30.8678 13.9734 29.2268 12.0255 26.9939 11.7642L29.7909 6.49527L34.8335 4.35569V8.41434L31.9309 9.62983Z" fill="#FDB913"/>
</svg>
