<svg width="53" height="28" viewBox="0 0 53 28" fill="none" xmlns="http://www.w3.org/2000/svg">
<rect x="0.499756" width="52" height="28" fill="black" fill-opacity="0.01"/>
<path d="M26.499 4.2002C18.3857 4.2002 13.0347 8.58978 13.0347 14.0002C13.0347 19.4106 18.3857 23.8002 26.499 23.8002C34.6184 23.8002 39.9632 19.4106 39.9632 14.0002C39.9694 8.58978 34.6184 4.2002 26.499 4.2002Z" fill="white"/>
<path d="M28.9033 17.6689C31.2134 17.2542 39.0232 15.6018 38.0633 11.0144C37.7164 9.36829 36.0752 7.55631 33.5917 6.29941C31.6098 5.38066 29.1882 4.84473 26.4756 4.84473C18.9383 4.84473 13.6987 8.9472 13.6987 14.0067C13.6987 17.5286 16.2442 20.5911 20.3318 22.1223C21.1988 19.768 24.6547 18.4282 28.9033 17.6689Z" fill="#0075BF"/>
<path d="M26.5181 19.2896C23.1365 19.7298 21.5882 20.8527 20.5911 22.2181C22.3128 22.8242 24.2947 23.1687 26.4685 23.1687C34.0058 23.1687 39.2454 19.0662 39.2454 14.0067C39.2454 13.5601 39.202 13.1199 39.1215 12.686C38.8738 18.626 30.2155 18.8174 26.5181 19.2896Z" fill="url(#paint0_linear_685_10867)"/>
<path fill-rule="evenodd" clip-rule="evenodd" d="M16.6697 9.22266H19.1966C21.42 9.22266 22.8506 10.5753 22.8444 12.6743C22.8444 15.0223 21.3271 16.5982 19.0727 16.5982C18.0994 16.5982 17.0756 16.5617 16.8773 16.5547C16.8561 16.5539 16.8443 16.5535 16.8431 16.5535H16.7935C16.7935 16.5535 16.7997 10.6518 16.7997 10.5434C16.8059 10.0904 16.8121 9.57995 16.7006 9.29922L16.6697 9.22266ZM18.7929 9.83545C18.4709 9.83545 18.025 9.86735 17.8763 9.88011H17.8825V15.2522C17.8825 15.986 17.9816 16.0434 19.1831 16.0434C20.8243 16.0434 21.6233 15.0034 21.6233 12.866C21.6233 10.7989 20.7252 9.83545 18.7929 9.83545Z" fill="white"/>
<path d="M29.6334 16.5019C29.5962 16.0744 29.5777 15.781 29.5777 15.5257V12.9609H28.3761L28.4133 13.0375C28.4133 13.0375 28.5372 13.2863 28.5372 13.8222C28.5372 13.8414 28.5434 15.6087 28.4938 16.0234C28.2027 16.1 27.8187 16.1255 27.5648 16.1255C25.6573 16.1255 24.6911 14.9962 24.6911 12.7759C24.6911 11.0787 25.7811 9.81546 27.3357 9.70062C28.1532 9.6432 28.9459 9.87288 29.4414 10.3131L29.5281 10.3897V9.34971L29.4848 9.34333C28.9893 9.24762 28.4071 9.13916 27.8435 9.13916C25.0999 9.13916 23.4648 10.6257 23.4648 13.114C23.4648 15.7682 25.4653 16.7125 27.3357 16.7125C28.1284 16.7125 28.9521 16.6487 29.5838 16.5466L29.6334 16.5402V16.5019Z" fill="white"/>
<path fill-rule="evenodd" clip-rule="evenodd" d="M33.9186 12.5276C34.606 12.3426 35.2625 11.7173 35.2625 10.8049C35.2625 9.80964 34.3955 9.22266 32.94 9.22266H30.7786L30.791 9.28646C30.791 9.28646 30.8529 9.57995 30.8529 10.2562V16.6109H30.9086L30.9226 16.6107H30.9226C31.0365 16.6083 31.8316 16.5918 32.7976 16.5918C34.6122 16.5918 35.6589 15.7815 35.6589 14.3651C35.6589 13.491 34.9529 12.7573 33.9186 12.5276ZM31.9305 12.8848H32.4879C33.7761 12.8848 34.4264 13.408 34.4264 14.4352C34.4264 15.5199 33.8628 16.043 32.7047 16.043C32.1411 16.043 31.9243 15.8325 31.9243 15.2966V12.8848H31.9305ZM32.641 9.79688H31.935V12.3107H32.3933C33.6444 12.3107 34.2265 11.8832 34.2265 10.9581C34.2265 10.1414 33.7558 9.79688 32.641 9.79688Z" fill="white"/>
<defs>
<linearGradient id="paint0_linear_685_10867" x1="20.2745" y1="23.2948" x2="39.3856" y2="23.2948" gradientUnits="userSpaceOnUse">
<stop offset="0.1" stop-color="#0075BF"/>
<stop offset="0.1776" stop-color="#0078C1"/>
<stop offset="0.2861" stop-color="#0080C8"/>
<stop offset="0.4" stop-color="#008BD2"/>
<stop offset="0.75" stop-color="#00AB97"/>
<stop offset="1" stop-color="#76B82A"/>
</linearGradient>
</defs>
</svg>
