<svg width="53" height="28" viewBox="0 0 53 28" fill="none" xmlns="http://www.w3.org/2000/svg">
<rect x="0.833252" width="52" height="28" fill="black" fill-opacity="0.01"/>
<path fill-rule="evenodd" clip-rule="evenodd" d="M29.4614 9.3335H31.2884C31.341 9.3335 31.3837 9.37554 31.3837 9.42687V18.5029C31.3837 18.5931 31.3087 18.6666 31.215 18.6666H29.1671C27.8458 18.6666 27.2426 18.2581 26.8426 17.3934L24.3903 11.5922C24.1927 11.1802 23.9105 10.9992 23.334 10.9992H21.9416C21.8885 10.9992 21.8458 10.9585 21.8458 10.908V9.42687C21.8458 9.37554 21.8885 9.3335 21.9416 9.3335H23.6633C24.9845 9.3335 25.6853 9.74152 26.0849 10.6089L28.5708 16.4836C28.7214 16.8341 28.9375 17.0005 29.366 17.0005V9.42687C29.366 9.37554 29.4087 9.3335 29.4614 9.3335ZM16.7362 17.0406H13.6483V14.8522H16.7362C17.5681 14.8522 18.1299 15.3426 18.1299 15.9462C18.1299 16.5511 17.5681 17.0406 16.7362 17.0406ZM18.8632 14.001C19.595 13.7076 20.203 13.0456 20.203 11.953C20.203 10.3227 18.7532 9.33361 17.0064 9.33361H11.6087C11.5561 9.33361 11.5129 9.37565 11.5129 9.42698V10.9082C11.5129 10.9586 11.5561 10.9993 11.6087 10.9993H16.6323C17.444 10.9993 17.9916 11.4781 17.9916 12.0667C17.9916 12.6566 17.444 13.1346 16.6323 13.1346H13.648V12.0344C13.648 11.9835 13.6049 11.9419 13.5522 11.9419H11.6087C11.5561 11.9419 11.5129 11.9835 11.5129 12.0344V18.5738C11.5129 18.6251 11.5561 18.6667 11.6087 18.6667H16.9288C18.9171 18.6667 20.3407 17.7715 20.3407 15.9464C20.3407 15.0503 19.7927 14.3082 18.8632 14.001ZM41.99 10.9993C42.0431 10.9993 42.0854 10.9586 42.0854 10.9077V9.42698C42.0854 9.37565 42.0431 9.33361 41.99 9.33361H40.8474C39.5265 9.33361 38.8253 9.74162 38.4258 10.609L35.9412 16.4837C35.7901 16.8342 35.5727 17.0006 35.1446 17.0006V9.42698C35.1446 9.37565 35.1015 9.33361 35.048 9.33361H33.2227C33.1696 9.33361 33.1256 9.37565 33.1256 9.42698V18.503C33.1256 18.5933 33.2024 18.6667 33.2965 18.6667H35.3435C36.6644 18.6667 37.2685 18.2583 37.6685 17.3935L40.1207 11.5919C40.3175 11.1803 40.6001 10.9993 41.1766 10.9993H41.99ZM39.9368 14.6952L43.066 18.5604C43.1049 18.6068 43.0781 18.6666 43.0143 18.6666H40.8093C40.6449 18.6666 40.5348 18.6183 40.439 18.4962L39.0703 16.7243C39.0617 16.7141 39.0617 16.7004 39.0655 16.6876L39.9087 14.6983C39.9143 14.6864 39.9273 14.6833 39.9368 14.6952ZM23.7698 11.9413H21.9416C21.8885 11.9413 21.8458 11.9833 21.8458 12.0342V18.5732C21.8458 18.6249 21.8885 18.6665 21.9416 18.6665H23.7698C23.8229 18.6665 23.8661 18.6249 23.8661 18.5732V12.0342C23.8661 11.9833 23.8229 11.9413 23.7698 11.9413Z" fill="#D71921"/>
</svg>
