<svg width="53" height="28" viewBox="0 0 53 28" fill="none" xmlns="http://www.w3.org/2000/svg">
<rect x="0.166748" width="52" height="28" fill="black" fill-opacity="0.01"/>
<path d="M19.0967 8.37305C18.6349 9.27283 19.0967 11.1146 19.6793 12.0003L27.5732 24.2669H21.8038C20.9375 24.2614 20.1253 23.8492 19.6154 23.1562L15.3096 16.4641C14.929 15.784 14.929 14.958 15.3096 14.2779L19.0967 8.37305Z" fill="url(#paint0_radial_685_10204)"/>
<path d="M22.4272 14.4191C22.1239 14.9472 22.0922 15.5865 22.3419 16.1413L19.6775 12.0009C19.102 11.1152 18.633 9.27347 19.0949 8.37368L19.5638 7.67073C20.0585 6.9367 20.9038 6.51053 21.7948 6.546H27.479L22.4272 14.4191Z" fill="url(#paint1_radial_685_10204)"/>
<path d="M34.1442 19.6207C34.6061 18.7279 34.1442 16.8792 33.5616 15.9934L25.6677 3.73389H31.4371C32.3031 3.74215 33.1153 4.15045 33.6326 4.83753L37.9384 11.5367C38.3367 12.2222 38.3367 13.0655 37.9384 13.751L34.1442 19.6207Z" fill="url(#paint2_radial_685_10204)"/>
<path d="M30.8211 13.5748C31.1188 13.0446 31.1477 12.407 30.8993 11.8525L33.5637 15.9929C34.1392 16.8787 34.6082 18.7274 34.1463 19.6202L33.6774 20.3232C33.181 21.0545 32.336 21.4779 31.4464 21.4409H25.7622L30.8211 13.5748Z" fill="url(#paint3_radial_685_10204)"/>
<defs>
<radialGradient id="paint0_radial_685_10204" cx="0" cy="0" r="1" gradientUnits="userSpaceOnUse" gradientTransform="translate(15.1961 7.36346) rotate(-90) scale(15.1518 11.9632)">
<stop stop-color="#D4E5F7"/>
<stop offset="0.07" stop-color="#CCE1F6"/>
<stop offset="0.17" stop-color="#B6D6F2"/>
<stop offset="0.25" stop-color="#A3CCEE"/>
<stop offset="0.35" stop-color="#91BCE4"/>
<stop offset="0.54" stop-color="#6193C9"/>
<stop offset="0.7" stop-color="#376FB2"/>
<stop offset="0.81" stop-color="#265EA0"/>
<stop offset="1" stop-color="#033878"/>
</radialGradient>
<radialGradient id="paint1_radial_685_10204" cx="0" cy="0" r="1" gradientUnits="userSpaceOnUse" gradientTransform="translate(30.73 7.19131) scale(10.7718 12.0614)">
<stop stop-color="#D4E5F7"/>
<stop offset="0.07" stop-color="#CCE1F6"/>
<stop offset="0.17" stop-color="#B6D6F2"/>
<stop offset="0.25" stop-color="#A3CCEE"/>
<stop offset="0.35" stop-color="#91BCE4"/>
<stop offset="0.54" stop-color="#6193C9"/>
<stop offset="0.7" stop-color="#376FB2"/>
<stop offset="0.81" stop-color="#265EA0"/>
<stop offset="1" stop-color="#033878"/>
</radialGradient>
<radialGradient id="paint2_radial_685_10204" cx="0" cy="0" r="1" gradientUnits="userSpaceOnUse" gradientTransform="translate(38.0455 16.5046) rotate(90) scale(15.1488 11.9856)">
<stop stop-color="#D4E5F7"/>
<stop offset="0.07" stop-color="#CCE1F6"/>
<stop offset="0.17" stop-color="#B6D6F2"/>
<stop offset="0.25" stop-color="#A3CCEE"/>
<stop offset="0.35" stop-color="#91BCE4"/>
<stop offset="0.54" stop-color="#6193C9"/>
<stop offset="0.7" stop-color="#376FB2"/>
<stop offset="0.81" stop-color="#265EA0"/>
<stop offset="1" stop-color="#033878"/>
</radialGradient>
<radialGradient id="paint3_radial_685_10204" cx="0" cy="0" r="1" gradientUnits="userSpaceOnUse" gradientTransform="translate(23.1166 19.7871) rotate(180) scale(10.775 12.0564)">
<stop stop-color="#D4E5F7"/>
<stop offset="0.07" stop-color="#CCE1F6"/>
<stop offset="0.17" stop-color="#B6D6F2"/>
<stop offset="0.25" stop-color="#A3CCEE"/>
<stop offset="0.35" stop-color="#91BCE4"/>
<stop offset="0.54" stop-color="#6193C9"/>
<stop offset="0.7" stop-color="#376FB2"/>
<stop offset="0.81" stop-color="#265EA0"/>
<stop offset="1" stop-color="#033878"/>
</radialGradient>
</defs>
</svg>
