<svg width="53" height="28" viewBox="0 0 53 28" fill="none" xmlns="http://www.w3.org/2000/svg">
<rect x="0.499756" width="52" height="28" fill="black" fill-opacity="0.01"/>
<mask id="mask0_685_10213" style="mask-type:luminance" maskUnits="userSpaceOnUse" x="27" y="10" width="11" height="14">
<path fill-rule="evenodd" clip-rule="evenodd" d="M29.325 10.4108C29.5232 10.8414 29.6327 11.32 29.6327 11.8256C29.6327 12.5139 29.4277 13.1529 29.0771 13.6874C29.3932 13.5797 29.7322 13.5207 30.084 13.5207C31.8082 13.5207 33.206 14.9257 33.206 16.6587C33.206 18.3914 31.8082 19.7961 30.084 19.7961C29.0711 19.7961 28.1713 19.3114 27.6011 18.5603V22.9402C28.5742 23.4875 29.6956 23.8002 30.8903 23.8002C34.6181 23.8002 37.6415 20.761 37.6415 17.0124C37.6415 13.266 34.6181 10.228 30.8903 10.228C30.3512 10.228 29.8283 10.2908 29.325 10.4108Z" fill="white"/>
</mask>
<g mask="url(#mask0_685_10213)">
<path fill-rule="evenodd" clip-rule="evenodd" d="M29.325 10.4108C29.5232 10.8414 29.6327 11.32 29.6327 11.8256C29.6327 12.5139 29.4277 13.1529 29.0771 13.6874C29.3932 13.5797 29.7322 13.5207 30.084 13.5207C31.8082 13.5207 33.206 14.9257 33.206 16.6587C33.206 18.3914 31.8082 19.7961 30.084 19.7961C29.0711 19.7961 28.1713 19.3114 27.6011 18.5603V22.9402C28.5742 23.4875 29.6956 23.8002 30.8903 23.8002C34.6181 23.8002 37.6415 20.761 37.6415 17.0124C37.6415 13.266 34.6181 10.228 30.8903 10.228C30.3512 10.228 29.8283 10.2908 29.325 10.4108Z" fill="url(#paint0_linear_685_10213)"/>
</g>
<mask id="mask1_685_10213" style="mask-type:luminance" maskUnits="userSpaceOnUse" x="14" y="10" width="11" height="14">
<path fill-rule="evenodd" clip-rule="evenodd" d="M14.8918 17.0123C14.8918 20.7609 17.9157 23.8001 21.6436 23.8001C22.8378 23.8001 23.9596 23.4874 24.933 22.9401V18.5602C24.3623 19.3113 23.4629 19.796 22.4493 19.796C20.7251 19.796 19.3273 18.3913 19.3273 16.6586C19.3273 16.0605 19.5004 15.5073 19.7891 15.0318C18.6742 13.2172 18.7405 11.2654 18.7667 10.8779C16.4782 11.9648 14.8918 14.3004 14.8918 17.0123Z" fill="white"/>
</mask>
<g mask="url(#mask1_685_10213)">
<path fill-rule="evenodd" clip-rule="evenodd" d="M14.8918 17.0123C14.8918 20.7609 17.9157 23.8001 21.6436 23.8001C22.8378 23.8001 23.9596 23.4874 24.933 22.9401V18.5602C24.3623 19.3113 23.4629 19.796 22.4493 19.796C20.7251 19.796 19.3273 18.3913 19.3273 16.6586C19.3273 16.0605 19.5004 15.5073 19.7891 15.0318C18.6742 13.2172 18.7405 11.2654 18.7667 10.8779C16.4782 11.9648 14.8918 14.3004 14.8918 17.0123Z" fill="url(#paint1_linear_685_10213)"/>
</g>
<mask id="mask2_685_10213" style="mask-type:luminance" maskUnits="userSpaceOnUse" x="19" y="4" width="15" height="11">
<path fill-rule="evenodd" clip-rule="evenodd" d="M26.2673 4.2002C22.4266 4.2002 19.3132 7.33067 19.3132 11.1903C19.3132 12.3994 19.619 13.5378 20.1582 14.5289C20.7274 13.9093 21.5439 13.5207 22.45 13.5207C22.8022 13.5207 23.1413 13.5798 23.4579 13.6874C23.1062 13.1529 22.9016 12.5139 22.9016 11.8256C22.9016 9.95727 24.4081 8.44264 26.2678 8.44264C27.4149 8.44264 28.421 9.02296 29.0285 9.90365C29.349 9.81174 31.1109 9.36674 33.1153 10.0076C32.5544 6.7125 29.7067 4.2002 26.2673 4.2002Z" fill="white"/>
</mask>
<g mask="url(#mask2_685_10213)">
<path fill-rule="evenodd" clip-rule="evenodd" d="M26.2673 4.2002C22.4266 4.2002 19.3132 7.33067 19.3132 11.1903C19.3132 12.3994 19.619 13.5378 20.1582 14.5289C20.7274 13.9093 21.5439 13.5207 22.45 13.5207C22.8022 13.5207 23.1413 13.5798 23.4579 13.6874C23.1062 13.1529 22.9016 12.5139 22.9016 11.8256C22.9016 9.95727 24.4081 8.44264 26.2678 8.44264C27.4149 8.44264 28.421 9.02296 29.0285 9.90365C29.349 9.81174 31.1109 9.36674 33.1153 10.0076C32.5544 6.7125 29.7067 4.2002 26.2673 4.2002Z" fill="url(#paint2_linear_685_10213)"/>
</g>
<defs>
<linearGradient id="paint0_linear_685_10213" x1="27.7392" y1="11.3183" x2="22.264" y2="26.2091" gradientUnits="userSpaceOnUse">
<stop stop-color="#44C6F4"/>
<stop offset="1" stop-color="#0066B1"/>
</linearGradient>
<linearGradient id="paint1_linear_685_10213" x1="26.501" y1="22.8961" x2="26.3553" y2="6.00758" gradientUnits="userSpaceOnUse">
<stop stop-color="#44C6F4"/>
<stop offset="1" stop-color="#0066B1"/>
</linearGradient>
<linearGradient id="paint2_linear_685_10213" x1="21.9636" y1="14.3067" x2="34.8287" y2="12.8931" gradientUnits="userSpaceOnUse">
<stop stop-color="#44C6F4"/>
<stop offset="1" stop-color="#0066B1"/>
</linearGradient>
</defs>
</svg>
