<svg width="53" height="28" viewBox="0 0 53 28" fill="none" xmlns="http://www.w3.org/2000/svg">
<rect x="0.833252" width="52" height="28" fill="black" fill-opacity="0.01"/>
<path d="M26.3769 3.88075C20.8185 4.13357 16.5153 8.86812 16.7652 14.4593C17.018 20.0489 21.7301 24.372 27.2889 24.122C32.8493 23.866 37.1541 19.1315 36.9029 13.5438C36.6554 8.11003 32.2003 3.8716 26.8428 3.86962C26.6882 3.86962 26.5331 3.8728 26.3769 3.88075Z" fill="url(#paint0_radial_685_9965)"/>
<path fill-rule="evenodd" clip-rule="evenodd" d="M16.63 14.4645C16.3753 8.80054 20.7358 3.99922 26.3682 3.744C26.5252 3.73764 26.6826 3.73327 26.8373 3.73327C32.2692 3.73407 36.791 8.02934 37.0374 13.5371C37.2913 19.201 32.9268 24.0004 27.2948 24.256C21.6617 24.5116 16.8855 20.1273 16.63 14.4645ZM27.9152 22.742C27.9152 22.742 27.579 22.8004 27.5881 23.031C27.5964 23.2278 27.7835 23.3037 27.9069 23.3037L27.9413 23.3021C29.2974 23.2278 30.3304 22.9233 31.2645 22.2729C32.4841 21.4234 33.5808 18.9735 30.379 16.2941C30.379 16.2941 29.3864 15.3886 27.5699 13.7074C26.6232 12.8062 26.1529 12.386 26.1529 12.386C25.8828 12.1326 25.6205 11.8824 25.3695 11.6429L25.3693 11.6428L25.2133 11.494C22.8515 9.22651 22.3334 7.19117 24.1024 5.99342C24.5777 5.66904 25.203 5.59908 25.9018 5.55774C25.9018 5.55774 26.2431 5.54223 26.289 5.30729C26.3384 5.08905 26.1929 4.93402 25.9362 4.91175C23.7381 4.71975 20.8393 5.54621 20.6412 8.88185C20.6412 8.88185 20.3208 11.5886 24.3302 15.0602C24.3302 15.0602 28.5353 18.7095 28.9849 19.1352C30.0543 20.1497 30.9374 22.1417 27.9152 22.742ZM28.3356 13.1407C27.2998 12.9237 27.0887 11.98 27.0887 11.98C27.0032 11.646 26.9835 11.2254 27.0535 10.6888C27.1652 9.79338 27.3798 9.27834 27.6356 8.66471L27.6356 8.6647L27.6356 8.66468C27.7004 8.50926 27.7678 8.34751 27.8369 8.17165C28.123 7.44846 27.8022 6.9115 27.5598 6.50578C27.4108 6.2565 27.2915 6.05676 27.3607 5.89382C27.5144 5.54172 27.8693 5.67529 28.3249 5.84671C28.6197 5.95765 28.9567 6.08446 29.3085 6.1057C29.6089 6.122 29.8625 6.12642 30.0956 6.13048C30.4597 6.13683 30.7737 6.1423 31.1376 6.19077C31.9333 6.29532 32.8856 6.56763 33.3087 7.06652C33.6959 7.52487 33.1015 8.08101 32.3912 7.73278C31.8692 7.47717 31.2139 7.633 31.5983 8.18C32.0182 8.65082 32.2398 8.70645 32.6316 8.80484C32.6715 8.81486 32.7132 8.82532 32.757 8.83671C34.0574 9.18296 34.0843 10.4368 33.2019 11.0827C32.2034 11.8205 31.1838 11.5141 30.78 10.069C30.5756 9.34634 30.0706 8.98022 29.5493 9.18653C29.0348 9.39047 29.3397 10.3394 29.7332 11.2195C30.413 12.965 29.0384 13.1487 28.5108 13.1487C28.4281 13.1487 28.3672 13.1443 28.3356 13.1407ZM20.8831 21.213C22.0577 22.2362 23.4043 22.592 24.5314 22.7033C24.7093 22.7228 24.8822 22.7319 25.0455 22.7319C25.7095 22.7319 26.2145 22.5876 26.1995 22.3268C26.1879 22.1265 25.9162 22.0402 25.5189 21.9141C25.0181 21.7552 24.318 21.533 23.6878 20.9395C24.4051 20.4209 24.7269 19.9651 24.9624 19.6314C24.9748 19.6139 24.9869 19.5967 24.9988 19.5799C25.4766 18.9057 25.1898 18.8107 24.688 18.8536C23.8561 18.9248 23.307 19.0309 22.9478 19.1003C22.7332 19.1417 22.5863 19.1701 22.4875 19.1701C22.3004 19.1701 22.3092 18.6746 22.3202 18.0568C22.3261 17.7227 22.3326 17.3527 22.3092 17.0059C22.2467 16.1982 21.8935 16.2892 21.5677 16.5619C21.2669 16.8248 21.0166 17.1938 20.8316 17.4666C20.6715 17.7027 20.5603 17.8667 20.5078 17.8268C20.259 17.6364 19.9937 17.3259 19.6654 16.7662C19.5551 16.5771 19.4477 16.3633 19.3474 16.1636C19.1602 15.7906 18.9978 15.4672 18.8875 15.4472C18.3386 15.3399 18.4782 16.6931 18.81 17.8539C19.1343 18.99 19.803 20.278 20.8831 21.213Z" fill="url(#paint1_radial_685_9965)"/>
<defs>
<radialGradient id="paint0_radial_685_9965" cx="0" cy="0" r="1" gradientUnits="userSpaceOnUse" gradientTransform="translate(28.0898 10.7176) scale(9.58209 9.63161)">
<stop stop-color="white"/>
<stop offset="0.00445011" stop-color="white"/>
<stop offset="1" stop-color="#D4A54E"/>
</radialGradient>
<radialGradient id="paint1_radial_685_9965" cx="0" cy="0" r="1" gradientUnits="userSpaceOnUse" gradientTransform="translate(28.4854 11.3096) scale(21.4219 21.5317)">
<stop stop-color="#39BCEE"/>
<stop offset="0.219101" stop-color="#2495D3"/>
<stop offset="0.375647" stop-color="#1863AE"/>
<stop offset="0.573029" stop-color="#1863AE"/>
<stop offset="1" stop-color="#1863AE"/>
</radialGradient>
</defs>
</svg>
