<svg width="53" height="28" viewBox="0 0 53 28" fill="none" xmlns="http://www.w3.org/2000/svg">
<rect x="0.498779" width="52" height="28" fill="black" fill-opacity="0.01"/>
<path fill-rule="evenodd" clip-rule="evenodd" d="M26.5104 14.4475L30.3308 16.6954V16.7018L30.2963 16.6825C28.9304 17.7679 27.627 18.1272 26.4991 18.1277C25.3717 18.1272 24.0678 17.7679 22.7019 16.6825L22.6679 16.7018V16.6954L26.5104 14.4475ZM24.5697 6.56836H24.5904L24.5697 11.1804L20.7381 13.3397L20.7327 13.3333C19.9516 7.83236 24.5697 6.56836 24.5697 6.56836ZM32.2681 13.3334L32.2626 13.3398L28.431 11.1805L28.4098 6.56843H28.431C28.431 6.56843 33.0491 7.83243 32.2681 13.3334ZM35.8957 15.8156C34.8696 18.3818 33.15 19.1078 33.15 19.1078C38.2094 13.9483 35.1195 8.00348 35.1195 8.00348C34.3723 6.67119 35.3231 6.09066 35.3231 6.09066C33.15 6.63704 33.8293 8.44791 33.8293 8.44791C34.9213 11.065 34.7009 13.1906 34.3305 14.5056L33.6139 14.1023L33.6252 14.0854C33.6252 14.0854 35.3221 7.35862 28.402 4.99888L28.3961 3.7334H26.9358V12.0692L33.7275 15.9641C33.6035 16.2175 33.4722 16.4556 33.336 16.6803L26.5147 12.7046L19.6649 16.6803C19.5287 16.4556 19.3969 16.2175 19.2734 15.9641L26.0647 12.0692V3.7334H24.6048L24.5984 4.99888C17.6788 7.35862 19.3752 14.0854 19.3752 14.0854L19.3865 14.1023L18.6709 14.5056C18.2995 13.1906 18.0796 11.065 19.1716 8.44791C19.1716 8.44791 19.8509 6.63704 17.6773 6.09066C17.6773 6.09066 18.6286 6.67119 17.8814 8.00348C17.8814 8.00348 14.7915 13.9483 19.8509 19.1078C19.8509 19.1078 18.1313 18.3818 17.1052 15.8156C17.1052 15.8156 16.5229 14.5635 14.8933 14.8367C14.8933 14.8367 15.5081 15.1173 15.8692 16.2517C15.8692 16.2517 17.3384 20.9528 23.0087 21.6699V24.2667H25.7931V20.4396C25.7931 20.4396 22.839 20.4168 20.5842 17.9195L21.2837 17.5087C21.4145 17.633 23.5586 19.6294 26.4832 19.6814V19.6824C26.4891 19.6824 26.4946 19.6824 26.5005 19.6819C26.5059 19.6824 26.5118 19.6824 26.5177 19.6824V19.6814C29.4423 19.6294 31.5864 17.633 31.7167 17.5087L32.4167 17.9195C30.1619 20.4168 27.2078 20.4396 27.2078 20.4396V24.2667H29.9922V21.6699C35.6625 20.9528 37.1312 16.2517 37.1312 16.2517C37.4923 15.1173 38.1076 14.8367 38.1076 14.8367C36.478 14.5635 35.8957 15.8156 35.8957 15.8156Z" fill="#0056A6"/>
</svg>
