<svg width="53" height="28" viewBox="0 0 53 28" fill="none" xmlns="http://www.w3.org/2000/svg">
<rect x="0.833252" width="52" height="28" fill="black" fill-opacity="0.01"/>
<path fill-rule="evenodd" clip-rule="evenodd" d="M32.597 19.9991C33.0821 19.9991 33.6226 19.8256 34.2023 19.48L34.3313 19.4044L33.8077 21.4037L33.7865 21.4183C33.4288 21.628 32.8364 21.9134 31.8563 21.8941C30.4117 21.8657 29.4436 20.7756 29.4436 19.181V13.3252H27.6038V11.3728H29.4436V9.25929L31.5762 8.14453V11.3728H33.7922V13.3252H31.5762V18.8298C31.5762 19.637 31.8939 19.9991 32.597 19.9991ZM21.0297 18.6844L20.9826 18.7309C20.2122 19.4963 19.3216 19.9017 18.4048 19.9017C16.4902 19.9017 15.0994 18.4988 15.0994 16.5631C15.0994 14.6304 16.4902 13.2254 18.4048 13.2254C19.3216 13.2254 20.2122 13.6324 20.9826 14.3997L21.0297 14.4463L22.2606 12.991L22.2279 12.9525C21.2037 11.7703 19.9741 11.1956 18.4637 11.1956C16.9474 11.1956 15.5624 11.6934 14.5637 12.5919C13.4786 13.5651 12.905 14.9373 12.905 16.5631C12.905 18.1877 13.4786 19.5629 14.5637 20.5366C15.5624 21.4385 16.9474 21.9346 18.4637 21.9346C19.9741 21.9346 21.2037 21.3594 22.2279 20.177L22.2606 20.14L21.0297 18.6844ZM23.5071 21.7347H25.6819V11.3621H23.5071V21.7347ZM36.004 21.7346H38.1807V11.3621H36.004V21.7346ZM42.0365 9.98986C42.1516 9.98986 42.2382 9.93695 42.2382 9.8143C42.2382 9.69911 42.1516 9.63892 42.0365 9.63892H41.7029V9.98986H42.0365ZM42.0408 9.43628C42.2652 9.43628 42.4536 9.55199 42.4536 9.80821C42.4536 10.0018 42.3479 10.1243 42.1849 10.1706L42.4439 10.6683H42.1907L41.9444 10.1928H41.7009V10.6683H41.4867V9.43628H42.0408ZM41.9272 8.94507C42.5841 8.94507 43.0836 9.43358 43.0836 10.0746C43.0836 10.7151 42.5841 11.2036 41.9272 11.2036C41.2706 11.2036 40.7704 10.7151 40.7704 10.0746C40.7704 9.43358 41.2706 8.94507 41.9272 8.94507ZM41.9263 11.0218C42.4778 11.0218 42.8963 10.6122 42.8963 10.0744C42.8963 9.53632 42.4778 9.12622 41.9263 9.12622C41.376 9.12622 40.9557 9.53632 40.9557 10.0744C40.9557 10.6122 41.376 11.0218 41.9263 11.0218Z" fill="#004186"/>
<path fill-rule="evenodd" clip-rule="evenodd" d="M39.4311 9.52865C37.4414 6.77557 34.1376 5.13379 30.7765 5.13379C27.416 5.13379 24.111 6.77557 22.1245 9.52865L22.0227 9.67038H24.5286L24.5554 9.64106C26.2608 7.92087 28.4859 7.01289 30.7765 7.01289C33.066 7.01289 35.2911 7.92087 36.9998 9.64106L37.0281 9.67038H39.5315L39.4311 9.52865Z" fill="#E50113"/>
</svg>
