<svg width="53" height="28" viewBox="0 0 53 28" fill="none" xmlns="http://www.w3.org/2000/svg">
<rect x="0.166504" width="52" height="28" fill="black" fill-opacity="0.01"/>
<mask id="mask0_685_9977" style="mask-type:luminance" maskUnits="userSpaceOnUse" x="15" y="3" width="22" height="22">
<path fill-rule="evenodd" clip-rule="evenodd" d="M15.9485 3.7334H36.3771V24.2667H15.9485V3.7334Z" fill="white"/>
</mask>
<g mask="url(#mask0_685_9977)">
<path fill-rule="evenodd" clip-rule="evenodd" d="M36.3771 13.9972C36.3771 19.6715 31.7968 24.2668 26.1659 24.2668C20.5166 24.2668 15.9485 19.6715 15.9485 13.9972C15.9485 8.32984 20.5166 3.7334 26.1659 3.7334C31.7968 3.7334 36.3771 8.32984 36.3771 13.9972Z" fill="#FEFEFE"/>
</g>
<path fill-rule="evenodd" clip-rule="evenodd" d="M26.1671 23.775C31.5338 23.775 35.8914 19.3992 35.8914 13.997C35.8914 8.59824 31.5338 4.21777 26.1604 4.21777C20.7894 4.21777 16.4353 8.59824 16.4353 13.997C16.4353 19.4008 20.7894 23.775 26.1671 23.775Z" fill="#007BC3"/>
<mask id="mask1_685_9977" style="mask-type:luminance" maskUnits="userSpaceOnUse" x="16" y="4" width="20" height="20">
<path fill-rule="evenodd" clip-rule="evenodd" d="M16.4341 13.9966C16.4341 19.4008 20.7885 23.7746 26.1662 23.7746C31.533 23.7746 35.8902 19.3988 35.8902 13.9966C35.8902 8.59785 31.533 4.21777 26.16 4.21777C20.7885 4.21777 16.4341 8.59785 16.4341 13.9966Z" fill="white"/>
</mask>
<g mask="url(#mask1_685_9977)">
<path fill-rule="evenodd" clip-rule="evenodd" d="M26.201 18.7204C30.4754 18.7204 34.1406 19.9181 35.7101 21.6157C36.2383 20.3984 36.5274 19.0605 36.5274 17.6566C36.5274 12.0471 31.8995 7.50244 26.201 7.50244C20.5025 7.50244 15.8789 12.0494 15.8789 17.6566C15.8789 19.0672 16.1692 20.3984 16.6951 21.6157C18.2611 19.9181 21.9267 18.7204 26.201 18.7204Z" fill="#007BC3"/>
</g>
<mask id="mask2_685_9977" style="mask-type:luminance" maskUnits="userSpaceOnUse" x="16" y="4" width="20" height="20">
<path fill-rule="evenodd" clip-rule="evenodd" d="M16.4341 13.9966C16.4341 19.4008 20.7885 23.7746 26.1662 23.7746C31.533 23.7746 35.8902 19.3988 35.8902 13.9966C35.8902 8.59785 31.533 4.21777 26.16 4.21777C20.7885 4.21777 16.4341 8.59785 16.4341 13.9966Z" fill="white"/>
</mask>
<g mask="url(#mask2_685_9977)">
<path fill-rule="evenodd" clip-rule="evenodd" d="M26.1983 18.7316C30.4613 18.7316 34.1179 19.9195 35.6827 21.6037C36.2098 20.3962 36.4981 19.0689 36.4981 17.6764C36.4981 12.112 31.8823 7.58936 26.1983 7.58936C20.5143 7.58936 15.9023 12.1139 15.9023 17.6764C15.9023 19.0756 16.1922 20.3966 16.7166 21.6037C18.2786 19.9195 21.9349 18.7316 26.1983 18.7316Z" fill="#007CC4"/>
</g>
<mask id="mask3_685_9977" style="mask-type:luminance" maskUnits="userSpaceOnUse" x="16" y="4" width="20" height="20">
<path fill-rule="evenodd" clip-rule="evenodd" d="M16.4341 13.9966C16.4341 19.4008 20.7885 23.7746 26.1662 23.7746C31.533 23.7746 35.8902 19.3988 35.8902 13.9966C35.8902 8.59785 31.533 4.21777 26.16 4.21777C20.7885 4.21777 16.4341 8.59785 16.4341 13.9966Z" fill="white"/>
</mask>
<g mask="url(#mask3_685_9977)">
<path fill-rule="evenodd" clip-rule="evenodd" d="M26.1965 18.7418C30.4486 18.7418 34.0958 19.9203 35.6567 21.5908C36.1822 20.3931 36.4701 19.0768 36.4701 17.6953C36.4701 12.1756 31.866 7.67578 26.1965 7.67578C20.5273 7.67578 15.9275 12.1776 15.9275 17.6953C15.9275 19.0827 16.2162 20.3935 16.7394 21.5908C18.2971 19.9203 21.9444 18.7418 26.1965 18.7418Z" fill="#007EC5"/>
</g>
<mask id="mask4_685_9977" style="mask-type:luminance" maskUnits="userSpaceOnUse" x="16" y="4" width="20" height="20">
<path fill-rule="evenodd" clip-rule="evenodd" d="M16.4341 13.9966C16.4341 19.4008 20.7885 23.7746 26.1662 23.7746C31.533 23.7746 35.8902 19.3988 35.8902 13.9966C35.8902 8.59785 31.533 4.21777 26.16 4.21777C20.7885 4.21777 16.4341 8.59785 16.4341 13.9966Z" fill="white"/>
</mask>
<g mask="url(#mask4_685_9977)">
<path fill-rule="evenodd" clip-rule="evenodd" d="M26.1964 18.7528C30.4372 18.7528 34.075 19.9211 35.632 21.5779C36.156 20.3904 36.4439 19.0851 36.4439 17.7142C36.4439 12.2397 31.8515 7.76221 26.1964 7.76221C20.5417 7.76221 15.9536 12.2416 15.9536 17.7142C15.9536 19.0906 16.2416 20.3908 16.7636 21.5779C18.3174 19.9211 21.9549 18.7528 26.1964 18.7528Z" fill="#0080C6"/>
</g>
<mask id="mask5_685_9977" style="mask-type:luminance" maskUnits="userSpaceOnUse" x="16" y="4" width="20" height="20">
<path fill-rule="evenodd" clip-rule="evenodd" d="M16.4341 13.9966C16.4341 19.4008 20.7885 23.7746 26.1662 23.7746C31.533 23.7746 35.8902 19.3988 35.8902 13.9966C35.8902 8.59785 31.533 4.21777 26.16 4.21777C20.7885 4.21777 16.4341 8.59785 16.4341 13.9966Z" fill="white"/>
</mask>
<g mask="url(#mask5_685_9977)">
<path fill-rule="evenodd" clip-rule="evenodd" d="M26.1961 18.7642C30.4255 18.7642 34.0548 19.923 35.6075 21.566C36.1303 20.3883 36.4167 19.0936 36.4167 17.7349C36.4167 12.3048 31.8368 7.8501 26.1961 7.8501C20.5559 7.8501 15.9795 12.3067 15.9795 17.7349C15.9795 19.0995 16.2671 20.3887 16.7875 21.566C18.3374 19.923 21.9655 18.7642 26.1961 18.7642Z" fill="#0082C8"/>
</g>
<mask id="mask6_685_9977" style="mask-type:luminance" maskUnits="userSpaceOnUse" x="16" y="4" width="20" height="20">
<path fill-rule="evenodd" clip-rule="evenodd" d="M16.4341 13.9966C16.4341 19.4008 20.7885 23.7746 26.1662 23.7746C31.533 23.7746 35.8902 19.3988 35.8902 13.9966C35.8902 8.59785 31.533 4.21777 26.16 4.21777C20.7885 4.21777 16.4341 8.59785 16.4341 13.9966Z" fill="white"/>
</mask>
<g mask="url(#mask6_685_9977)">
<path fill-rule="evenodd" clip-rule="evenodd" d="M26.1927 18.7748C30.4112 18.7748 34.0311 19.9242 35.5799 21.5535C36.1011 20.3856 36.3871 19.1015 36.3871 17.7538C36.3871 12.3692 31.8189 7.93652 26.1927 7.93652C20.5673 7.93652 16.0027 12.3712 16.0027 17.7538C16.0027 19.107 16.2895 20.3864 16.8087 21.5535C18.3544 19.9242 21.9735 18.7748 26.1927 18.7748Z" fill="#0084C9"/>
</g>
<mask id="mask7_685_9977" style="mask-type:luminance" maskUnits="userSpaceOnUse" x="16" y="4" width="20" height="20">
<path fill-rule="evenodd" clip-rule="evenodd" d="M16.4341 13.9966C16.4341 19.4008 20.7885 23.7746 26.1662 23.7746C31.533 23.7746 35.8902 19.3988 35.8902 13.9966C35.8902 8.59785 31.533 4.21777 26.16 4.21777C20.7885 4.21777 16.4341 8.59785 16.4341 13.9966Z" fill="white"/>
</mask>
<g mask="url(#mask7_685_9977)">
<path fill-rule="evenodd" clip-rule="evenodd" d="M26.1905 18.7855C30.3976 18.7855 34.0086 19.9251 35.5534 21.5414C36.0731 20.3826 36.3583 19.1099 36.3583 17.7732C36.3583 12.4334 31.8022 8.02344 26.1905 8.02344C20.5799 8.02344 16.0266 12.4353 16.0266 17.7732C16.0266 19.115 16.313 20.3834 16.8307 21.5414C18.3724 19.9251 21.9822 18.7855 26.1905 18.7855Z" fill="#0086CA"/>
</g>
<mask id="mask8_685_9977" style="mask-type:luminance" maskUnits="userSpaceOnUse" x="16" y="4" width="20" height="20">
<path fill-rule="evenodd" clip-rule="evenodd" d="M16.4341 13.9966C16.4341 19.4008 20.7885 23.7746 26.1662 23.7746C31.533 23.7746 35.8902 19.3988 35.8902 13.9966C35.8902 8.59785 31.533 4.21777 26.16 4.21777C20.7885 4.21777 16.4341 8.59785 16.4341 13.9966Z" fill="white"/>
</mask>
<g mask="url(#mask8_685_9977)">
<path fill-rule="evenodd" clip-rule="evenodd" d="M26.1891 18.7966C30.3849 18.7966 33.9868 19.9264 35.527 21.529C36.0455 20.3804 36.3307 19.1179 36.3307 17.7929C36.3307 12.4979 31.786 8.11035 26.1891 8.11035C20.593 8.11035 16.0518 12.4999 16.0518 17.7929C16.0518 19.1234 16.337 20.3812 16.8535 21.529C18.3913 19.9264 21.9913 18.7966 26.1891 18.7966Z" fill="#0087CB"/>
</g>
<mask id="mask9_685_9977" style="mask-type:luminance" maskUnits="userSpaceOnUse" x="16" y="4" width="20" height="20">
<path fill-rule="evenodd" clip-rule="evenodd" d="M16.4341 13.9966C16.4341 19.4008 20.7885 23.7746 26.1662 23.7746C31.533 23.7746 35.8902 19.3988 35.8902 13.9966C35.8902 8.59785 31.533 4.21777 26.16 4.21777C20.7885 4.21777 16.4341 8.59785 16.4341 13.9966Z" fill="white"/>
</mask>
<g mask="url(#mask9_685_9977)">
<path fill-rule="evenodd" clip-rule="evenodd" d="M26.1877 18.8073C30.3725 18.8073 33.9651 19.9276 35.5017 21.5157C36.0186 20.3773 36.3031 19.1262 36.3031 17.8122C36.3031 12.5619 31.7705 8.19678 26.1877 8.19678C20.6064 8.19678 16.0769 12.5635 16.0769 17.8122C16.0769 19.1305 16.3617 20.3784 16.8767 21.5157C18.4106 19.9276 22.0012 18.8073 26.1877 18.8073Z" fill="#0089CD"/>
</g>
<mask id="mask10_685_9977" style="mask-type:luminance" maskUnits="userSpaceOnUse" x="16" y="4" width="20" height="20">
<path fill-rule="evenodd" clip-rule="evenodd" d="M16.4341 13.9966C16.4341 19.4008 20.7885 23.7746 26.1662 23.7746C31.533 23.7746 35.8902 19.3988 35.8902 13.9966C35.8902 8.59785 31.533 4.21777 26.16 4.21777C20.7885 4.21777 16.4341 8.59785 16.4341 13.9966Z" fill="white"/>
</mask>
<g mask="url(#mask10_685_9977)">
<path fill-rule="evenodd" clip-rule="evenodd" d="M26.1866 18.8184C30.3602 18.8184 33.9437 19.9282 35.4761 21.5036C35.9914 20.3746 36.2755 19.1345 36.2755 17.8312C36.2755 12.6261 31.7546 8.28369 26.1866 8.28369C20.6198 8.28369 16.1021 12.628 16.1021 17.8312C16.1021 19.1388 16.3861 20.3762 16.8999 21.5036C18.4295 19.9282 22.0111 18.8184 26.1866 18.8184Z" fill="#008BCE"/>
</g>
<mask id="mask11_685_9977" style="mask-type:luminance" maskUnits="userSpaceOnUse" x="16" y="4" width="20" height="20">
<path fill-rule="evenodd" clip-rule="evenodd" d="M16.4341 13.9966C16.4341 19.4008 20.7885 23.7746 26.1662 23.7746C31.533 23.7746 35.8902 19.3988 35.8902 13.9966C35.8902 8.59785 31.533 4.21777 26.16 4.21777C20.7885 4.21777 16.4341 8.59785 16.4341 13.9966Z" fill="white"/>
</mask>
<g mask="url(#mask11_685_9977)">
<path fill-rule="evenodd" clip-rule="evenodd" d="M26.1852 18.8291C30.3474 18.8291 33.922 19.9295 35.4501 21.4908C35.9642 20.372 36.2475 19.1421 36.2475 17.8509C36.2475 12.6906 31.7391 8.37061 26.1852 8.37061C20.6328 8.37061 16.1272 12.6922 16.1272 17.8509C16.1272 19.1468 16.4101 20.3736 16.9227 21.4908C18.4484 19.9295 22.0206 18.8291 26.1852 18.8291Z" fill="#008DCF"/>
</g>
<mask id="mask12_685_9977" style="mask-type:luminance" maskUnits="userSpaceOnUse" x="16" y="4" width="20" height="20">
<path fill-rule="evenodd" clip-rule="evenodd" d="M16.4341 13.9966C16.4341 19.4008 20.7885 23.7746 26.1662 23.7746C31.533 23.7746 35.8902 19.3988 35.8902 13.9966C35.8902 8.59785 31.533 4.21777 26.16 4.21777C20.7885 4.21777 16.4341 8.59785 16.4341 13.9966Z" fill="white"/>
</mask>
<g mask="url(#mask12_685_9977)">
<path fill-rule="evenodd" clip-rule="evenodd" d="M26.183 18.8404C30.3342 18.8404 33.8998 19.9309 35.4236 21.4789C35.9366 20.3699 36.2191 19.151 36.2191 17.8704C36.2191 12.7552 31.7224 8.45801 26.183 8.45801C20.6454 8.45801 16.1511 12.7568 16.1511 17.8704C16.1511 19.1549 16.4336 20.3711 16.9447 21.4789C18.4665 19.9309 22.0293 18.8404 26.183 18.8404Z" fill="#008FD0"/>
</g>
<mask id="mask13_685_9977" style="mask-type:luminance" maskUnits="userSpaceOnUse" x="16" y="4" width="20" height="20">
<path fill-rule="evenodd" clip-rule="evenodd" d="M16.4341 13.9966C16.4341 19.4008 20.7885 23.7746 26.1662 23.7746C31.533 23.7746 35.8902 19.3988 35.8902 13.9966C35.8902 8.59785 31.533 4.21777 26.16 4.21777C20.7885 4.21777 16.4341 8.59785 16.4341 13.9966Z" fill="white"/>
</mask>
<g mask="url(#mask13_685_9977)">
<path fill-rule="evenodd" clip-rule="evenodd" d="M26.1835 18.8506C30.3234 18.8506 33.88 19.9321 35.3999 21.4659C35.9109 20.366 36.193 19.1585 36.193 17.8897C36.193 12.8193 31.7085 8.54443 26.1835 8.54443C20.6608 8.54443 16.1782 12.8208 16.1782 17.8897C16.1782 19.1624 16.4599 20.3684 16.9698 21.4659C18.4873 19.9321 22.0408 18.8506 26.1835 18.8506Z" fill="#0091D1"/>
</g>
<mask id="mask14_685_9977" style="mask-type:luminance" maskUnits="userSpaceOnUse" x="16" y="4" width="20" height="20">
<path fill-rule="evenodd" clip-rule="evenodd" d="M16.4341 13.9966C16.4341 19.4008 20.7885 23.7746 26.1662 23.7746C31.533 23.7746 35.8902 19.3988 35.8902 13.9966C35.8902 8.59785 31.533 4.21777 26.16 4.21777C20.7885 4.21777 16.4341 8.59785 16.4341 13.9966Z" fill="white"/>
</mask>
<g mask="url(#mask14_685_9977)">
<path fill-rule="evenodd" clip-rule="evenodd" d="M26.1834 18.8616C30.312 18.8616 33.8597 19.9329 35.3752 21.4534C35.8851 20.3637 36.1668 19.1664 36.1668 17.909C36.1668 12.8837 31.694 8.63086 26.1834 8.63086C20.6752 8.63086 16.2043 12.8849 16.2043 17.909C16.2043 19.1703 16.4857 20.3656 16.994 21.4534C18.5076 19.9329 22.0517 18.8616 26.1834 18.8616Z" fill="#0093D2"/>
</g>
<mask id="mask15_685_9977" style="mask-type:luminance" maskUnits="userSpaceOnUse" x="16" y="4" width="20" height="20">
<path fill-rule="evenodd" clip-rule="evenodd" d="M16.4341 13.9966C16.4341 19.4008 20.7885 23.7746 26.1662 23.7746C31.533 23.7746 35.8902 19.3988 35.8902 13.9966C35.8902 8.59785 31.533 4.21777 26.16 4.21777C20.7885 4.21777 16.4341 8.59785 16.4341 13.9966Z" fill="white"/>
</mask>
<g mask="url(#mask15_685_9977)">
<path fill-rule="evenodd" clip-rule="evenodd" d="M26.182 18.8729C30.2997 18.8729 33.8379 19.9343 35.3496 21.441C35.8583 20.3611 36.1388 19.1756 36.1388 17.9288C36.1388 12.9483 31.6781 8.71826 26.182 8.71826C20.6886 8.71826 16.2295 12.9495 16.2295 17.9288C16.2295 19.1784 16.51 20.3635 17.0172 21.441C18.5265 19.9343 22.0616 18.8729 26.182 18.8729Z" fill="#0095D3"/>
</g>
<mask id="mask16_685_9977" style="mask-type:luminance" maskUnits="userSpaceOnUse" x="16" y="4" width="20" height="20">
<path fill-rule="evenodd" clip-rule="evenodd" d="M16.4341 13.9966C16.4341 19.4008 20.7885 23.7746 26.1662 23.7746C31.533 23.7746 35.8902 19.3988 35.8902 13.9966C35.8902 8.59785 31.533 4.21777 26.16 4.21777C20.7885 4.21777 16.4341 8.59785 16.4341 13.9966Z" fill="white"/>
</mask>
<g mask="url(#mask16_685_9977)">
<path fill-rule="evenodd" clip-rule="evenodd" d="M26.1806 18.883C30.2869 18.883 33.8162 19.935 35.3235 21.4276C35.8307 20.358 36.1112 19.1826 36.1112 17.9472C36.1112 13.0119 31.6622 8.8042 26.1806 8.8042C20.7017 8.8042 16.2546 13.0131 16.2546 17.9472C16.2546 19.1858 16.534 20.3607 17.0396 21.4276C18.5454 19.935 22.0707 18.883 26.1806 18.883Z" fill="#0097D4"/>
</g>
<mask id="mask17_685_9977" style="mask-type:luminance" maskUnits="userSpaceOnUse" x="16" y="4" width="20" height="20">
<path fill-rule="evenodd" clip-rule="evenodd" d="M16.4341 13.9966C16.4341 19.4008 20.7885 23.7746 26.1662 23.7746C31.533 23.7746 35.8902 19.3988 35.8902 13.9966C35.8902 8.59785 31.533 4.21777 26.16 4.21777C20.7885 4.21777 16.4341 8.59785 16.4341 13.9966Z" fill="white"/>
</mask>
<g mask="url(#mask17_685_9977)">
<path fill-rule="evenodd" clip-rule="evenodd" d="M26.1805 18.8937C30.2755 18.8937 33.7958 19.9359 35.2993 21.4156C35.8048 20.3553 36.0846 19.191 36.0846 17.967C36.0846 13.0764 31.6477 8.89111 26.1805 8.89111C20.7165 8.89111 16.2808 13.0772 16.2808 17.967C16.2808 19.1941 16.5597 20.3581 17.0641 21.4156C18.5656 19.9359 22.082 18.8937 26.1805 18.8937Z" fill="#0099D6"/>
</g>
<mask id="mask18_685_9977" style="mask-type:luminance" maskUnits="userSpaceOnUse" x="16" y="4" width="20" height="20">
<path fill-rule="evenodd" clip-rule="evenodd" d="M16.4341 13.9966C16.4341 19.4008 20.7885 23.7746 26.1662 23.7746C31.533 23.7746 35.8902 19.3988 35.8902 13.9966C35.8902 8.59785 31.533 4.21777 26.16 4.21777C20.7885 4.21777 16.4341 8.59785 16.4341 13.9966Z" fill="white"/>
</mask>
<g mask="url(#mask18_685_9977)">
<path fill-rule="evenodd" clip-rule="evenodd" d="M26.1795 18.905C30.2636 18.905 33.7741 19.9377 35.2736 21.4036C35.778 20.3532 36.0566 19.1995 36.0566 17.9868C36.0566 13.141 31.6318 8.97852 26.1795 8.97852C20.7299 8.97852 16.3059 13.1422 16.3059 17.9868C16.3059 19.2022 16.5841 20.3556 17.0873 21.4036C18.5849 19.9377 22.0915 18.905 26.1795 18.905Z" fill="#009BD7"/>
</g>
<mask id="mask19_685_9977" style="mask-type:luminance" maskUnits="userSpaceOnUse" x="16" y="4" width="20" height="20">
<path fill-rule="evenodd" clip-rule="evenodd" d="M16.4341 13.9966C16.4341 19.4008 20.7885 23.7746 26.1662 23.7746C31.533 23.7746 35.8902 19.3988 35.8902 13.9966C35.8902 8.59785 31.533 4.21777 26.16 4.21777C20.7885 4.21777 16.4341 8.59785 16.4341 13.9966Z" fill="white"/>
</mask>
<g mask="url(#mask19_685_9977)">
<path fill-rule="evenodd" clip-rule="evenodd" d="M26.1767 18.9161C30.2495 18.9161 33.7518 19.9386 35.247 21.3912C35.7495 20.3502 36.028 19.2075 36.028 18.0066C36.028 13.2056 31.615 9.06543 26.1767 9.06543C20.742 9.06543 16.3301 13.2067 16.3301 18.0066C16.3301 19.2102 16.6075 20.3533 17.1092 21.3912C18.6024 19.9386 22.1001 18.9161 26.1767 18.9161Z" fill="#009DD8"/>
</g>
<mask id="mask20_685_9977" style="mask-type:luminance" maskUnits="userSpaceOnUse" x="16" y="4" width="20" height="20">
<path fill-rule="evenodd" clip-rule="evenodd" d="M16.4341 13.9966C16.4341 19.4008 20.7885 23.7746 26.1662 23.7746C31.533 23.7746 35.8902 19.3988 35.8902 13.9966C35.8902 8.59785 31.533 4.21777 26.16 4.21777C20.7885 4.21777 16.4341 8.59785 16.4341 13.9966Z" fill="white"/>
</mask>
<g mask="url(#mask20_685_9977)">
<path fill-rule="evenodd" clip-rule="evenodd" d="M26.1754 18.9263C30.2372 18.9263 33.7298 19.9395 35.2211 21.3783C35.7224 20.3471 36.0002 19.215 36.0002 18.0251C36.0002 13.2692 31.5992 9.15186 26.1754 9.15186C20.7551 9.15186 16.355 13.2704 16.355 18.0251C16.355 19.2177 16.6316 20.3502 17.1321 21.3783C18.6215 19.9395 22.1097 18.9263 26.1754 18.9263Z" fill="#009FD9"/>
</g>
<mask id="mask21_685_9977" style="mask-type:luminance" maskUnits="userSpaceOnUse" x="16" y="4" width="20" height="20">
<path fill-rule="evenodd" clip-rule="evenodd" d="M16.4341 13.9966C16.4341 19.4008 20.7885 23.7746 26.1662 23.7746C31.533 23.7746 35.8902 19.3988 35.8902 13.9966C35.8902 8.59785 31.533 4.21777 26.16 4.21777C20.7885 4.21777 16.4341 8.59785 16.4341 13.9966Z" fill="white"/>
</mask>
<g mask="url(#mask21_685_9977)">
<path fill-rule="evenodd" clip-rule="evenodd" d="M26.1734 18.9375C30.2235 18.9375 33.7075 19.9409 35.1945 21.3663C35.6942 20.3449 35.9716 19.2238 35.9716 18.045C35.9716 13.3342 31.5824 9.23926 26.1734 9.23926C20.7676 9.23926 16.3792 13.335 16.3792 18.045C16.3792 19.2262 16.6554 20.3485 17.1543 21.3663C18.6398 19.9409 22.1187 18.9375 26.1734 18.9375Z" fill="#00A1DA"/>
</g>
<mask id="mask22_685_9977" style="mask-type:luminance" maskUnits="userSpaceOnUse" x="16" y="4" width="20" height="20">
<path fill-rule="evenodd" clip-rule="evenodd" d="M16.4341 13.9966C16.4341 19.4008 20.7885 23.7746 26.1662 23.7746C31.533 23.7746 35.8902 19.3988 35.8902 13.9966C35.8902 8.59785 31.533 4.21777 26.16 4.21777C20.7885 4.21777 16.4341 8.59785 16.4341 13.9966Z" fill="white"/>
</mask>
<g mask="url(#mask22_685_9977)">
<path fill-rule="evenodd" clip-rule="evenodd" d="M26.1718 18.9482C30.2113 18.9482 33.6859 19.9421 35.1686 21.3534C35.6671 20.3422 35.9438 19.2321 35.9438 18.0642C35.9438 13.3987 31.5667 9.32568 26.1718 9.32568C20.7808 9.32568 16.4041 13.3995 16.4041 18.0642C16.4041 19.2341 16.6795 20.3458 17.1769 21.3534C18.6584 19.9421 22.1279 18.9482 26.1718 18.9482Z" fill="#00A3DB"/>
</g>
<mask id="mask23_685_9977" style="mask-type:luminance" maskUnits="userSpaceOnUse" x="16" y="4" width="20" height="20">
<path fill-rule="evenodd" clip-rule="evenodd" d="M16.4341 13.9966C16.4341 19.4008 20.7885 23.7746 26.1662 23.7746C31.533 23.7746 35.8902 19.3988 35.8902 13.9966C35.8902 8.59785 31.533 4.21777 26.16 4.21777C20.7885 4.21777 16.4341 8.59785 16.4341 13.9966Z" fill="white"/>
</mask>
<g mask="url(#mask23_685_9977)">
<path fill-rule="evenodd" clip-rule="evenodd" d="M26.1707 18.9592C30.1989 18.9592 33.6645 19.9433 35.1433 21.3409C35.6403 20.3395 35.9162 19.24 35.9162 18.0839C35.9162 13.4627 31.5512 9.41211 26.1707 9.41211C20.7942 9.41211 16.4292 13.4635 16.4292 18.0839C16.4292 19.2419 16.7043 20.3431 17.2001 21.3409C18.6777 19.9433 22.1378 18.9592 26.1707 18.9592Z" fill="#00A5DC"/>
</g>
<mask id="mask24_685_9977" style="mask-type:luminance" maskUnits="userSpaceOnUse" x="16" y="4" width="20" height="20">
<path fill-rule="evenodd" clip-rule="evenodd" d="M16.4341 13.9966C16.4341 19.4008 20.7885 23.7746 26.1662 23.7746C31.533 23.7746 35.8902 19.3988 35.8902 13.9966C35.8902 8.59785 31.533 4.21777 26.16 4.21777C20.7885 4.21777 16.4341 8.59785 16.4341 13.9966Z" fill="white"/>
</mask>
<g mask="url(#mask24_685_9977)">
<path fill-rule="evenodd" clip-rule="evenodd" d="M26.1683 18.9696C30.1848 18.9696 33.6418 19.9438 35.1159 21.3281C35.6117 20.3361 35.8872 19.2476 35.8872 18.1025C35.8872 13.5269 31.5339 9.49902 26.1683 9.49902C20.8066 9.49902 16.4534 13.5272 16.4534 18.1025C16.4534 19.2491 16.7273 20.34 17.2219 21.3281C18.6953 19.9438 22.1464 18.9696 26.1683 18.9696Z" fill="#00A7DD"/>
</g>
<mask id="mask25_685_9977" style="mask-type:luminance" maskUnits="userSpaceOnUse" x="16" y="4" width="20" height="20">
<path fill-rule="evenodd" clip-rule="evenodd" d="M16.4341 13.9966C16.4341 19.4008 20.7885 23.7746 26.1662 23.7746C31.533 23.7746 35.8902 19.3988 35.8902 13.9966C35.8902 8.59785 31.533 4.21777 26.16 4.21777C20.7885 4.21777 16.4341 8.59785 16.4341 13.9966Z" fill="white"/>
</mask>
<g mask="url(#mask25_685_9977)">
<path fill-rule="evenodd" clip-rule="evenodd" d="M26.1679 18.9807C30.1738 18.9807 33.6214 19.9451 35.0917 21.3156C35.5859 20.3339 35.861 19.2563 35.861 18.1223C35.861 13.5914 31.5194 9.58594 26.1679 9.58594C20.821 9.58594 16.4795 13.5918 16.4795 18.1223C16.4795 19.2579 16.7526 20.3378 17.2461 21.3156C18.7155 19.9451 22.1573 18.9807 26.1679 18.9807Z" fill="#00A9DE"/>
</g>
<mask id="mask26_685_9977" style="mask-type:luminance" maskUnits="userSpaceOnUse" x="16" y="4" width="20" height="20">
<path fill-rule="evenodd" clip-rule="evenodd" d="M16.4341 13.9966C16.4341 19.4008 20.7885 23.7746 26.1662 23.7746C31.533 23.7746 35.8902 19.3988 35.8902 13.9966C35.8902 8.59785 31.533 4.21777 26.16 4.21777C20.7885 4.21777 16.4341 8.59785 16.4341 13.9966Z" fill="white"/>
</mask>
<g mask="url(#mask26_685_9977)">
<path fill-rule="evenodd" clip-rule="evenodd" d="M26.1665 18.9914C30.1611 18.9914 33.5993 19.9464 35.0656 21.3036C35.5587 20.3313 35.8326 19.2643 35.8326 18.142C35.8326 13.6555 31.5035 9.67285 26.1665 9.67285C20.8345 9.67285 16.5046 13.6563 16.5046 18.142C16.5046 19.2655 16.777 20.3356 17.2689 21.3036C18.7344 19.9464 22.1668 18.9914 26.1665 18.9914Z" fill="#00ACDF"/>
</g>
<mask id="mask27_685_9977" style="mask-type:luminance" maskUnits="userSpaceOnUse" x="16" y="4" width="20" height="20">
<path fill-rule="evenodd" clip-rule="evenodd" d="M16.4341 13.9966C16.4341 19.4008 20.7885 23.7746 26.1662 23.7746C31.533 23.7746 35.8902 19.3988 35.8902 13.9966C35.8902 8.59785 31.533 4.21777 26.16 4.21777C20.7885 4.21777 16.4341 8.59785 16.4341 13.9966Z" fill="white"/>
</mask>
<g mask="url(#mask27_685_9977)">
<path fill-rule="evenodd" clip-rule="evenodd" d="M26.1656 19.002C30.1485 19.002 33.5781 19.9469 35.0401 21.2903C35.532 20.3282 35.8051 19.2718 35.8051 18.1605C35.8051 13.7196 31.4878 9.75928 26.1656 9.75928C20.848 9.75928 16.5295 13.72 16.5295 18.1605C16.5295 19.273 16.8019 20.3325 17.2922 21.2903C18.7535 19.9469 22.1768 19.002 26.1656 19.002Z" fill="#11AEE0"/>
</g>
<mask id="mask28_685_9977" style="mask-type:luminance" maskUnits="userSpaceOnUse" x="16" y="4" width="20" height="20">
<path fill-rule="evenodd" clip-rule="evenodd" d="M16.4341 13.9966C16.4341 19.4008 20.7885 23.7746 26.1662 23.7746C31.533 23.7746 35.8902 19.3988 35.8902 13.9966C35.8902 8.59785 31.533 4.21777 26.16 4.21777C20.7885 4.21777 16.4341 8.59785 16.4341 13.9966Z" fill="white"/>
</mask>
<g mask="url(#mask28_685_9977)">
<path fill-rule="evenodd" clip-rule="evenodd" d="M26.1647 19.0133C30.1371 19.0133 33.5569 19.9487 35.0155 21.2783C35.5054 20.326 35.7785 19.2807 35.7785 18.1808C35.7785 13.7846 31.4729 9.84668 26.1647 9.84668C20.8617 9.84668 16.5557 13.7846 16.5557 18.1808C16.5557 19.2815 16.8268 20.3303 17.316 21.2783C18.7733 19.9487 22.1869 19.0133 26.1647 19.0133Z" fill="#1EB0E1"/>
</g>
<mask id="mask29_685_9977" style="mask-type:luminance" maskUnits="userSpaceOnUse" x="16" y="4" width="20" height="20">
<path fill-rule="evenodd" clip-rule="evenodd" d="M16.4341 13.9966C16.4341 19.4008 20.7885 23.7746 26.1662 23.7746C31.533 23.7746 35.8902 19.3988 35.8902 13.9966C35.8902 8.59785 31.533 4.21777 26.16 4.21777C20.7885 4.21777 16.4341 8.59785 16.4341 13.9966Z" fill="white"/>
</mask>
<g mask="url(#mask29_685_9977)">
<path fill-rule="evenodd" clip-rule="evenodd" d="M26.1647 19.0245C30.1257 19.0245 33.5366 19.9501 34.9908 21.2664C35.4796 20.3239 35.7519 19.2895 35.7519 18.2002C35.7519 13.8492 31.4584 9.93408 26.1647 9.93408C20.8761 9.93408 16.5818 13.8492 16.5818 18.2002C16.5818 19.2899 16.8525 20.3282 17.3402 21.2664C18.7932 19.9501 22.1978 19.0245 26.1647 19.0245Z" fill="#27B2E2"/>
</g>
<mask id="mask30_685_9977" style="mask-type:luminance" maskUnits="userSpaceOnUse" x="16" y="4" width="20" height="20">
<path fill-rule="evenodd" clip-rule="evenodd" d="M16.4341 13.9966C16.4341 19.4008 20.7885 23.7746 26.1662 23.7746C31.533 23.7746 35.8902 19.3988 35.8902 13.9966C35.8902 8.59785 31.533 4.21777 26.16 4.21777C20.7885 4.21777 16.4341 8.59785 16.4341 13.9966Z" fill="white"/>
</mask>
<g mask="url(#mask30_685_9977)">
<path fill-rule="evenodd" clip-rule="evenodd" d="M26.1642 19.0346C30.1139 19.0346 33.5158 19.9508 34.9657 21.2529C35.4529 20.3203 35.7249 19.2969 35.7249 18.2194C35.7249 13.9132 31.4431 10.02 26.1642 10.02C20.8905 10.02 16.6079 13.9132 16.6079 18.2194C16.6079 19.2973 16.8775 20.325 17.3639 21.2529C18.8135 19.9508 22.2083 19.0346 26.1642 19.0346Z" fill="#2EB4E3"/>
</g>
<mask id="mask31_685_9977" style="mask-type:luminance" maskUnits="userSpaceOnUse" x="16" y="4" width="20" height="20">
<path fill-rule="evenodd" clip-rule="evenodd" d="M16.4341 13.9966C16.4341 19.4008 20.7885 23.7746 26.1662 23.7746C31.533 23.7746 35.8902 19.3988 35.8902 13.9966C35.8902 8.59785 31.533 4.21777 26.16 4.21777C20.7885 4.21777 16.4341 8.59785 16.4341 13.9966Z" fill="white"/>
</mask>
<g mask="url(#mask31_685_9977)">
<path fill-rule="evenodd" clip-rule="evenodd" d="M26.1632 19.0458C30.1019 19.0458 33.4949 19.9521 34.9405 21.2405C35.4265 20.3177 35.6977 19.3049 35.6977 18.2384C35.6977 13.9773 31.428 10.1069 26.1632 10.1069C20.9043 10.1069 16.6331 13.9773 16.6331 18.2384C16.6331 19.3053 16.9023 20.3228 17.3875 21.2405C18.8327 19.9521 22.2186 19.0458 26.1632 19.0458Z" fill="#35B7E5"/>
</g>
<mask id="mask32_685_9977" style="mask-type:luminance" maskUnits="userSpaceOnUse" x="16" y="4" width="20" height="20">
<path fill-rule="evenodd" clip-rule="evenodd" d="M16.4341 13.9966C16.4341 19.4008 20.7885 23.7746 26.1662 23.7746C31.533 23.7746 35.8902 19.3988 35.8902 13.9966C35.8902 8.59785 31.533 4.21777 26.16 4.21777C20.7885 4.21777 16.4341 8.59785 16.4341 13.9966Z" fill="white"/>
</mask>
<g mask="url(#mask32_685_9977)">
<path fill-rule="evenodd" clip-rule="evenodd" d="M26.1608 19.057C30.0882 19.057 33.4721 19.9535 34.9138 21.2286C35.3983 20.3155 35.6687 19.3134 35.6687 18.2586C35.6687 14.0419 31.4111 10.1943 26.1608 10.1943C20.9163 10.1943 16.6572 14.0419 16.6572 18.2586C16.6572 19.3134 16.9256 20.3207 17.4093 21.2286C18.8507 19.9535 22.2268 19.057 26.1608 19.057Z" fill="#3AB9E6"/>
</g>
<mask id="mask33_685_9977" style="mask-type:luminance" maskUnits="userSpaceOnUse" x="16" y="4" width="20" height="20">
<path fill-rule="evenodd" clip-rule="evenodd" d="M16.4341 13.9966C16.4341 19.4008 20.7885 23.7746 26.1662 23.7746C31.533 23.7746 35.8902 19.3988 35.8902 13.9966C35.8902 8.59785 31.533 4.21777 26.16 4.21777C20.7885 4.21777 16.4341 8.59785 16.4341 13.9966Z" fill="white"/>
</mask>
<g mask="url(#mask33_685_9977)">
<path fill-rule="evenodd" clip-rule="evenodd" d="M26.1588 19.0815C30.0811 19.0815 33.46 19.9725 34.8997 21.2389C35.3834 20.3322 35.6534 19.3363 35.6534 18.2883C35.6534 14.099 31.4013 10.2734 26.1588 10.2734C20.9214 10.2734 16.6677 14.0994 16.6677 18.2883C16.6677 19.3363 16.9358 20.3365 17.4187 21.2389C18.858 19.9725 22.2302 19.0815 26.1588 19.0815Z" fill="#47BBE6"/>
</g>
<mask id="mask34_685_9977" style="mask-type:luminance" maskUnits="userSpaceOnUse" x="16" y="4" width="20" height="20">
<path fill-rule="evenodd" clip-rule="evenodd" d="M16.4341 13.9966C16.4341 19.4008 20.7885 23.7746 26.1662 23.7746C31.533 23.7746 35.8902 19.3988 35.8902 13.9966C35.8902 8.59785 31.533 4.21777 26.16 4.21777C20.7885 4.21777 16.4341 8.59785 16.4341 13.9966Z" fill="white"/>
</mask>
<g mask="url(#mask34_685_9977)">
<path fill-rule="evenodd" clip-rule="evenodd" d="M26.1611 19.1061C30.0784 19.1061 33.4525 19.9912 34.8903 21.2498C35.3733 20.3486 35.6432 19.3598 35.6432 18.3184C35.6432 14.1566 31.3966 10.353 26.1611 10.353C20.9303 10.353 16.6833 14.157 16.6833 18.3184C16.6833 19.3598 16.9506 20.3533 17.4331 21.2498C18.8705 19.9912 22.238 19.1061 26.1611 19.1061Z" fill="#53BDE7"/>
</g>
<mask id="mask35_685_9977" style="mask-type:luminance" maskUnits="userSpaceOnUse" x="16" y="4" width="20" height="20">
<path fill-rule="evenodd" clip-rule="evenodd" d="M16.4341 13.9966C16.4341 19.4008 20.7885 23.7746 26.1662 23.7746C31.533 23.7746 35.8902 19.3988 35.8902 13.9966C35.8902 8.59785 31.533 4.21777 26.16 4.21777C20.7885 4.21777 16.4341 8.59785 16.4341 13.9966Z" fill="white"/>
</mask>
<g mask="url(#mask35_685_9977)">
<path fill-rule="evenodd" clip-rule="evenodd" d="M26.1582 19.1311C30.0703 19.1311 33.4394 20.01 34.8753 21.2603C35.357 20.3653 35.627 19.3832 35.627 18.3485C35.627 14.2142 31.3862 10.4326 26.1582 10.4326C20.934 10.4326 16.6929 14.2146 16.6929 18.3485C16.6929 19.3836 16.9597 20.3697 17.4415 21.2603C18.8769 20.01 22.2401 19.1311 26.1582 19.1311Z" fill="#5CC0E8"/>
</g>
<mask id="mask36_685_9977" style="mask-type:luminance" maskUnits="userSpaceOnUse" x="16" y="4" width="20" height="20">
<path fill-rule="evenodd" clip-rule="evenodd" d="M16.4341 13.9966C16.4341 19.4008 20.7885 23.7746 26.1662 23.7746C31.533 23.7746 35.8902 19.3988 35.8902 13.9966C35.8902 8.59785 31.533 4.21777 26.16 4.21777C20.7885 4.21777 16.4341 8.59785 16.4341 13.9966Z" fill="white"/>
</mask>
<g mask="url(#mask36_685_9977)">
<path fill-rule="evenodd" clip-rule="evenodd" d="M26.1615 19.1557C30.0686 19.1557 33.433 20.0291 34.8669 21.2708C35.3478 20.3817 35.617 19.4063 35.617 18.3786C35.617 14.2714 31.3821 10.5122 26.1615 10.5122C20.9444 10.5122 16.7095 14.2722 16.7095 18.3786C16.7095 19.4067 16.9755 20.386 17.4565 21.2708C18.8904 20.0291 22.2493 19.1557 26.1615 19.1557Z" fill="#66C2E9"/>
</g>
<mask id="mask37_685_9977" style="mask-type:luminance" maskUnits="userSpaceOnUse" x="16" y="4" width="20" height="20">
<path fill-rule="evenodd" clip-rule="evenodd" d="M16.4341 13.9966C16.4341 19.4008 20.7885 23.7746 26.1662 23.7746C31.533 23.7746 35.8902 19.3988 35.8902 13.9966C35.8902 8.59785 31.533 4.21777 26.16 4.21777C20.7885 4.21777 16.4341 8.59785 16.4341 13.9966Z" fill="white"/>
</mask>
<g mask="url(#mask37_685_9977)">
<path fill-rule="evenodd" clip-rule="evenodd" d="M26.1592 19.1807C30.0609 19.1807 33.4206 20.0482 34.8525 21.282C35.3327 20.3985 35.6019 19.4297 35.6019 18.4087C35.6019 14.3294 31.3725 10.5918 26.1592 10.5918C20.9491 10.5918 16.7197 14.3298 16.7197 18.4087C16.7197 19.4301 16.9854 20.4024 17.466 21.282C18.8975 20.0482 22.2522 19.1807 26.1592 19.1807Z" fill="#6EC4EA"/>
</g>
<mask id="mask38_685_9977" style="mask-type:luminance" maskUnits="userSpaceOnUse" x="16" y="4" width="20" height="20">
<path fill-rule="evenodd" clip-rule="evenodd" d="M16.4341 13.9966C16.4341 19.4008 20.7885 23.7746 26.1662 23.7746C31.533 23.7746 35.8902 19.3988 35.8902 13.9966C35.8902 8.59785 31.533 4.21777 26.16 4.21777C20.7885 4.21777 16.4341 8.59785 16.4341 13.9966Z" fill="white"/>
</mask>
<g mask="url(#mask38_685_9977)">
<path fill-rule="evenodd" clip-rule="evenodd" d="M26.1606 19.2057C30.0575 19.2057 33.4121 20.0669 34.8418 21.2921C35.3211 20.4152 35.5903 19.4527 35.5903 18.4388C35.5903 14.387 31.3664 10.6714 26.1606 10.6714C20.9572 10.6714 16.7344 14.3874 16.7344 18.4388C16.7344 19.4531 16.9993 20.4192 17.4791 21.2921C18.9083 20.0669 22.2594 19.2057 26.1606 19.2057Z" fill="#76C7EB"/>
</g>
<mask id="mask39_685_9977" style="mask-type:luminance" maskUnits="userSpaceOnUse" x="16" y="4" width="20" height="20">
<path fill-rule="evenodd" clip-rule="evenodd" d="M16.4341 13.9966C16.4341 19.4008 20.7885 23.7746 26.1662 23.7746C31.533 23.7746 35.8902 19.3988 35.8902 13.9966C35.8902 8.59785 31.533 4.21777 26.16 4.21777C20.7885 4.21777 16.4341 8.59785 16.4341 13.9966Z" fill="white"/>
</mask>
<g mask="url(#mask39_685_9977)">
<path fill-rule="evenodd" clip-rule="evenodd" d="M26.1586 19.2299C30.0501 19.2299 33.4 20.0855 34.8276 21.3021C35.3066 20.4315 35.5751 19.4757 35.5751 18.4688C35.5751 14.4437 31.357 10.7505 26.1586 10.7505C20.9622 10.7505 16.7449 14.4445 16.7449 18.4688C16.7449 19.4761 17.0094 20.435 17.4888 21.3021C18.9164 20.0855 22.2625 19.2299 26.1586 19.2299Z" fill="#7EC9EC"/>
</g>
<mask id="mask40_685_9977" style="mask-type:luminance" maskUnits="userSpaceOnUse" x="16" y="4" width="20" height="20">
<path fill-rule="evenodd" clip-rule="evenodd" d="M16.4341 13.9966C16.4341 19.4008 20.7885 23.7746 26.1662 23.7746C31.533 23.7746 35.8902 19.3988 35.8902 13.9966C35.8902 8.59785 31.533 4.21777 26.16 4.21777C20.7885 4.21777 16.4341 8.59785 16.4341 13.9966Z" fill="white"/>
</mask>
<g mask="url(#mask40_685_9977)">
<path fill-rule="evenodd" clip-rule="evenodd" d="M26.1601 19.2555C30.0469 19.2555 33.3917 20.1052 34.8174 21.3139C35.2953 20.4484 35.5637 19.4993 35.5637 18.4995C35.5637 14.5023 31.3511 10.8311 26.1601 10.8311C20.9707 10.8311 16.7593 14.5031 16.7593 18.4995C16.7593 19.5001 17.0234 20.4524 17.502 21.3139C18.9277 20.1052 22.2698 19.2555 26.1601 19.2555Z" fill="#85CBED"/>
</g>
<mask id="mask41_685_9977" style="mask-type:luminance" maskUnits="userSpaceOnUse" x="16" y="4" width="20" height="20">
<path fill-rule="evenodd" clip-rule="evenodd" d="M16.4341 13.9966C16.4341 19.4008 20.7885 23.7746 26.1662 23.7746C31.533 23.7746 35.8902 19.3988 35.8902 13.9966C35.8902 8.59785 31.533 4.21777 26.16 4.21777C20.7885 4.21777 16.4341 8.59785 16.4341 13.9966Z" fill="white"/>
</mask>
<g mask="url(#mask41_685_9977)">
<path fill-rule="evenodd" clip-rule="evenodd" d="M26.1606 19.2805C30.0419 19.2805 33.3817 20.1244 34.8058 21.3248C35.2829 20.4656 35.5509 19.5227 35.5509 18.5296C35.5509 14.5599 31.3442 10.9106 26.1606 10.9106C20.9775 10.9106 16.7727 14.5611 16.7727 18.5296C16.7727 19.5235 17.036 20.4687 17.5139 21.3248C18.938 20.1244 22.2754 19.2805 26.1606 19.2805Z" fill="#8BCEEE"/>
</g>
<mask id="mask42_685_9977" style="mask-type:luminance" maskUnits="userSpaceOnUse" x="16" y="4" width="20" height="20">
<path fill-rule="evenodd" clip-rule="evenodd" d="M16.4341 13.9966C16.4341 19.4008 20.7885 23.7746 26.1662 23.7746C31.533 23.7746 35.8902 19.3988 35.8902 13.9966C35.8902 8.59785 31.533 4.21777 26.16 4.21777C20.7885 4.21777 16.4341 8.59785 16.4341 13.9966Z" fill="white"/>
</mask>
<g mask="url(#mask42_685_9977)">
<path fill-rule="evenodd" clip-rule="evenodd" d="M26.1595 19.3045C30.0357 19.3045 33.3708 20.1425 34.7929 21.3343C35.2688 20.481 35.5365 19.5452 35.5365 18.5592C35.5365 14.6165 31.3356 10.9893 26.1595 10.9893C20.9834 10.9893 16.7844 14.6177 16.7844 18.5592C16.7844 19.5456 17.047 20.4845 17.524 21.3343C18.9462 20.1425 22.2797 19.3045 26.1595 19.3045Z" fill="#92D0EF"/>
</g>
<mask id="mask43_685_9977" style="mask-type:luminance" maskUnits="userSpaceOnUse" x="16" y="4" width="20" height="20">
<path fill-rule="evenodd" clip-rule="evenodd" d="M16.4341 13.9966C16.4341 19.4008 20.7885 23.7746 26.1662 23.7746C31.533 23.7746 35.8902 19.3988 35.8902 13.9966C35.8902 8.59785 31.533 4.21777 26.16 4.21777C20.7885 4.21777 16.4341 8.59785 16.4341 13.9966Z" fill="white"/>
</mask>
<g mask="url(#mask43_685_9977)">
<path fill-rule="evenodd" clip-rule="evenodd" d="M26.161 19.3296C30.0325 19.3296 33.3625 20.1617 34.7824 21.3457C35.2578 20.4982 35.5255 19.5687 35.5255 18.5894C35.5255 14.6746 31.3297 11.0693 26.161 11.0693C20.9919 11.0693 16.7988 14.6758 16.7988 18.5894C16.7988 19.5699 17.061 20.5014 17.5377 21.3457C18.9575 20.1617 22.2867 19.3296 26.161 19.3296Z" fill="#98D2F0"/>
</g>
<mask id="mask44_685_9977" style="mask-type:luminance" maskUnits="userSpaceOnUse" x="16" y="4" width="20" height="20">
<path fill-rule="evenodd" clip-rule="evenodd" d="M16.4341 13.9966C16.4341 19.4008 20.7885 23.7746 26.1662 23.7746C31.533 23.7746 35.8902 19.3988 35.8902 13.9966C35.8902 8.59785 31.533 4.21777 26.16 4.21777C20.7885 4.21777 16.4341 8.59785 16.4341 13.9966Z" fill="white"/>
</mask>
<g mask="url(#mask44_685_9977)">
<path fill-rule="evenodd" clip-rule="evenodd" d="M26.1602 19.3541C30.0266 19.3541 33.3516 20.1803 34.7695 21.356C35.2442 20.5145 35.5118 19.5917 35.5118 18.6194C35.5118 14.7317 31.3215 11.1484 26.1602 11.1484C20.9978 11.1484 16.8105 14.7333 16.8105 18.6194C16.8105 19.5925 17.0723 20.5177 17.5482 21.356C18.9665 20.1803 22.2914 19.3541 26.1602 19.3541Z" fill="#9ED4F1"/>
</g>
<mask id="mask45_685_9977" style="mask-type:luminance" maskUnits="userSpaceOnUse" x="16" y="4" width="20" height="20">
<path fill-rule="evenodd" clip-rule="evenodd" d="M16.4341 13.9966C16.4341 19.4008 20.7885 23.7746 26.1662 23.7746C31.533 23.7746 35.8902 19.3988 35.8902 13.9966C35.8902 8.59785 31.533 4.21777 26.16 4.21777C20.7885 4.21777 16.4341 8.59785 16.4341 13.9966Z" fill="white"/>
</mask>
<g mask="url(#mask45_685_9977)">
<path fill-rule="evenodd" clip-rule="evenodd" d="M26.1623 19.3796C30.0233 19.3796 33.3439 20.1995 34.7598 21.367C35.2334 20.5318 35.5006 19.6156 35.5006 18.65C35.5006 14.7898 31.3161 11.2285 26.1623 11.2285C21.0065 11.2285 16.8259 14.7914 16.8259 18.65C16.8259 19.6168 17.0869 20.5341 17.562 21.367C18.9783 20.1995 22.299 19.3796 26.1623 19.3796Z" fill="#A4D7F2"/>
</g>
<mask id="mask46_685_9977" style="mask-type:luminance" maskUnits="userSpaceOnUse" x="16" y="4" width="20" height="20">
<path fill-rule="evenodd" clip-rule="evenodd" d="M16.4341 13.9966C16.4341 19.4008 20.7885 23.7746 26.1662 23.7746C31.533 23.7746 35.8902 19.3988 35.8902 13.9966C35.8902 8.59785 31.533 4.21777 26.16 4.21777C20.7885 4.21777 16.4341 8.59785 16.4341 13.9966Z" fill="white"/>
</mask>
<g mask="url(#mask46_685_9977)">
<path fill-rule="evenodd" clip-rule="evenodd" d="M26.1601 19.4047C30.016 19.4047 33.3316 20.2191 34.746 21.378C35.2187 20.5486 35.4856 19.6391 35.4856 18.6802C35.4856 14.8475 31.3069 11.3086 26.1601 11.3086C21.0114 11.3086 16.8367 14.8495 16.8367 18.6802C16.8367 19.6403 17.0973 20.5514 17.572 21.378C18.9863 20.2191 22.3023 19.4047 26.1601 19.4047Z" fill="#AAD9F2"/>
</g>
<mask id="mask47_685_9977" style="mask-type:luminance" maskUnits="userSpaceOnUse" x="16" y="4" width="20" height="20">
<path fill-rule="evenodd" clip-rule="evenodd" d="M16.4341 13.9966C16.4341 19.4008 20.7885 23.7746 26.1662 23.7746C31.533 23.7746 35.8902 19.3988 35.8902 13.9966C35.8902 8.59785 31.533 4.21777 26.16 4.21777C20.7885 4.21777 16.4341 8.59785 16.4341 13.9966Z" fill="white"/>
</mask>
<g mask="url(#mask47_685_9977)">
<path fill-rule="evenodd" clip-rule="evenodd" d="M26.163 19.4288C30.0138 19.4288 33.3247 20.2378 34.7363 21.3884C35.2087 20.5649 35.4752 19.6621 35.4752 18.7102C35.4752 14.9046 31.3024 11.3877 26.163 11.3877C21.0209 11.3877 16.8521 14.9066 16.8521 18.7102C16.8521 19.6633 17.1119 20.5668 17.5862 21.3884C18.9986 20.2378 22.3106 19.4288 26.163 19.4288Z" fill="#B0DCF3"/>
</g>
<mask id="mask48_685_9977" style="mask-type:luminance" maskUnits="userSpaceOnUse" x="16" y="4" width="20" height="20">
<path fill-rule="evenodd" clip-rule="evenodd" d="M16.4341 13.9966C16.4341 19.4008 20.7885 23.7746 26.1662 23.7746C31.533 23.7746 35.8902 19.3988 35.8902 13.9966C35.8902 8.59785 31.533 4.21777 26.16 4.21777C20.7885 4.21777 16.4341 8.59785 16.4341 13.9966Z" fill="white"/>
</mask>
<g mask="url(#mask48_685_9977)">
<path fill-rule="evenodd" clip-rule="evenodd" d="M26.1599 19.4547C30.0056 19.4547 33.3114 20.2574 34.7211 21.3997C35.1927 20.5821 35.4587 19.686 35.4587 18.7408C35.4587 14.9627 31.2915 11.4678 26.1599 11.4678C21.0244 11.4678 16.8618 14.9647 16.8618 18.7408C16.8618 19.6872 17.1212 20.5845 17.5948 21.3997C19.0052 20.2574 22.3126 19.4547 26.1599 19.4547Z" fill="#B6DEF4"/>
</g>
<mask id="mask49_685_9977" style="mask-type:luminance" maskUnits="userSpaceOnUse" x="16" y="4" width="20" height="20">
<path fill-rule="evenodd" clip-rule="evenodd" d="M16.4341 13.9966C16.4341 19.4008 20.7885 23.7746 26.1662 23.7746C31.533 23.7746 35.8902 19.3988 35.8902 13.9966C35.8902 8.59785 31.533 4.21777 26.16 4.21777C20.7885 4.21777 16.4341 8.59785 16.4341 13.9966Z" fill="white"/>
</mask>
<g mask="url(#mask49_685_9977)">
<path fill-rule="evenodd" clip-rule="evenodd" d="M26.1624 19.4789C30.003 19.4789 33.3037 20.2757 34.7119 21.4098C35.1827 20.5985 35.4483 19.709 35.4483 18.7705C35.4483 15.0199 31.2865 11.5474 26.1624 11.5474C21.0339 11.5474 16.8772 15.0219 16.8772 18.7705C16.8772 19.7102 17.1358 20.6005 17.6086 21.4098C19.0175 20.2757 22.3205 19.4789 26.1624 19.4789Z" fill="#BBE0F5"/>
</g>
<mask id="mask50_685_9977" style="mask-type:luminance" maskUnits="userSpaceOnUse" x="16" y="4" width="20" height="20">
<path fill-rule="evenodd" clip-rule="evenodd" d="M16.4341 13.9966C16.4341 19.4008 20.7885 23.7746 26.1662 23.7746C31.533 23.7746 35.8902 19.3988 35.8902 13.9966C35.8902 8.59785 31.533 4.21777 26.16 4.21777C20.7885 4.21777 16.4341 8.59785 16.4341 13.9966Z" fill="white"/>
</mask>
<g mask="url(#mask50_685_9977)">
<path fill-rule="evenodd" clip-rule="evenodd" d="M26.16 19.5035C29.9956 19.5035 33.2916 20.2947 34.6977 21.4202C35.1674 20.6144 35.4327 19.7316 35.4327 18.8005C35.4327 15.0774 31.2771 11.6265 26.16 11.6265C21.0386 11.6265 16.8877 15.0794 16.8877 18.8005C16.8877 19.7332 17.146 20.6167 17.6179 21.4202C19.0245 20.2947 22.3236 19.5035 26.16 19.5035Z" fill="#C1E2F6"/>
</g>
<mask id="mask51_685_9977" style="mask-type:luminance" maskUnits="userSpaceOnUse" x="16" y="4" width="20" height="20">
<path fill-rule="evenodd" clip-rule="evenodd" d="M16.4341 13.9966C16.4341 19.4008 20.7885 23.7746 26.1662 23.7746C31.533 23.7746 35.8902 19.3988 35.8902 13.9966C35.8902 8.59785 31.533 4.21777 26.16 4.21777C20.7885 4.21777 16.4341 8.59785 16.4341 13.9966Z" fill="white"/>
</mask>
<g mask="url(#mask51_685_9977)">
<path fill-rule="evenodd" clip-rule="evenodd" d="M26.1631 19.5285C29.9936 19.5285 33.2845 20.3134 34.6887 21.431C35.1576 20.6315 35.4229 19.755 35.4229 18.8306C35.4229 15.1346 31.2728 11.7061 26.1631 11.7061C21.0483 11.7061 16.9033 15.137 16.9033 18.8306C16.9033 19.7562 17.1612 20.6331 17.6328 21.431C19.0374 20.3134 22.3322 19.5285 26.1631 19.5285Z" fill="#C6E4F6"/>
</g>
<mask id="mask52_685_9977" style="mask-type:luminance" maskUnits="userSpaceOnUse" x="16" y="4" width="20" height="20">
<path fill-rule="evenodd" clip-rule="evenodd" d="M16.4341 13.9966C16.4341 19.4008 20.7885 23.7746 26.1662 23.7746C31.533 23.7746 35.8902 19.3988 35.8902 13.9966C35.8902 8.59785 31.533 4.21777 26.16 4.21777C20.7885 4.21777 16.4341 8.59785 16.4341 13.9966Z" fill="white"/>
</mask>
<g mask="url(#mask52_685_9977)">
<path fill-rule="evenodd" clip-rule="evenodd" d="M26.1597 19.5536C29.9852 19.5536 33.271 20.333 34.6733 21.4424C35.1413 20.6484 35.4066 19.779 35.4066 18.8609C35.4066 15.1927 31.262 11.7861 26.1597 11.7861C21.0516 11.7861 16.9128 15.1955 16.9128 18.8609C16.9128 19.7805 17.1703 20.6503 17.6407 21.4424C19.0438 20.333 22.3339 19.5536 26.1597 19.5536Z" fill="#CBE7F7"/>
</g>
<mask id="mask53_685_9977" style="mask-type:luminance" maskUnits="userSpaceOnUse" x="16" y="4" width="20" height="20">
<path fill-rule="evenodd" clip-rule="evenodd" d="M16.4341 13.9966C16.4341 19.4008 20.7885 23.7746 26.1662 23.7746C31.533 23.7746 35.8902 19.3988 35.8902 13.9966C35.8902 8.59785 31.533 4.21777 26.16 4.21777C20.7885 4.21777 16.4341 8.59785 16.4341 13.9966Z" fill="white"/>
</mask>
<g mask="url(#mask53_685_9977)">
<path fill-rule="evenodd" clip-rule="evenodd" d="M26.1634 19.5776C29.9834 19.5776 33.265 20.3512 34.6649 21.4515C35.1325 20.6646 35.397 19.801 35.397 18.8904C35.397 15.2497 31.2583 11.8647 26.1634 11.8647C21.0624 11.8647 16.9294 15.2521 16.9294 18.8904C16.9294 19.8026 17.1861 20.6657 17.6566 21.4515C19.0572 20.3512 22.3435 19.5776 26.1634 19.5776Z" fill="#D0E9F8"/>
</g>
<mask id="mask54_685_9977" style="mask-type:luminance" maskUnits="userSpaceOnUse" x="16" y="4" width="20" height="20">
<path fill-rule="evenodd" clip-rule="evenodd" d="M16.4341 13.9966C16.4341 19.4008 20.7885 23.7746 26.1662 23.7746C31.533 23.7746 35.8902 19.3988 35.8902 13.9966C35.8902 8.59785 31.533 4.21777 26.16 4.21777C20.7885 4.21777 16.4341 8.59785 16.4341 13.9966Z" fill="white"/>
</mask>
<g mask="url(#mask54_685_9977)">
<path fill-rule="evenodd" clip-rule="evenodd" d="M26.1591 19.6032C29.9744 19.6032 33.2504 20.3709 34.6488 21.463C35.1153 20.6815 35.3798 19.825 35.3798 18.9215C35.3798 15.3079 31.2465 11.9453 26.1591 11.9453C21.0646 11.9453 16.938 15.3103 16.938 18.9215C16.938 19.8266 17.1943 20.6831 17.6635 21.463C19.0627 20.3709 22.3442 19.6032 26.1591 19.6032Z" fill="#D4EBF9"/>
</g>
<mask id="mask55_685_9977" style="mask-type:luminance" maskUnits="userSpaceOnUse" x="16" y="4" width="20" height="20">
<path fill-rule="evenodd" clip-rule="evenodd" d="M16.4341 13.9966C16.4341 19.4008 20.7885 23.7746 26.1662 23.7746C31.533 23.7746 35.8902 19.3988 35.8902 13.9966C35.8902 8.59785 31.533 4.21777 26.16 4.21777C20.7885 4.21777 16.4341 8.59785 16.4341 13.9966Z" fill="white"/>
</mask>
<g mask="url(#mask55_685_9977)">
<path fill-rule="evenodd" clip-rule="evenodd" d="M26.1624 19.6282C29.9726 19.6282 33.244 20.3896 34.64 21.4738C35.1061 20.6987 35.3702 19.8489 35.3702 18.9512C35.3702 15.3651 31.2424 12.0249 26.1624 12.0249C21.075 12.0249 16.9546 15.3683 16.9546 18.9512C16.9546 19.8501 17.2097 20.6998 17.679 21.4738C19.0757 20.3896 22.3534 19.6282 26.1624 19.6282Z" fill="#D9EDF9"/>
</g>
<mask id="mask56_685_9977" style="mask-type:luminance" maskUnits="userSpaceOnUse" x="16" y="4" width="20" height="20">
<path fill-rule="evenodd" clip-rule="evenodd" d="M16.4341 13.9966C16.4341 19.4008 20.7885 23.7746 26.1662 23.7746C31.533 23.7746 35.8902 19.3988 35.8902 13.9966C35.8902 8.59785 31.533 4.21777 26.16 4.21777C20.7885 4.21777 16.4341 8.59785 16.4341 13.9966Z" fill="white"/>
</mask>
<g mask="url(#mask56_685_9977)">
<path fill-rule="evenodd" clip-rule="evenodd" d="M26.1594 19.6522C29.9641 19.6522 33.2309 20.4081 34.6249 21.4837C35.0899 20.714 35.354 19.8709 35.354 18.9807C35.354 15.4221 31.232 12.1035 26.1594 12.1035C21.0787 12.1035 16.9641 15.4249 16.9641 18.9807C16.9641 19.8729 17.2192 20.7152 17.6873 21.4837C19.0825 20.4081 22.3555 19.6522 26.1594 19.6522Z" fill="#DEEFFA"/>
</g>
<mask id="mask57_685_9977" style="mask-type:luminance" maskUnits="userSpaceOnUse" x="16" y="4" width="20" height="20">
<path fill-rule="evenodd" clip-rule="evenodd" d="M16.4341 13.9966C16.4341 19.4008 20.7885 23.7746 26.1662 23.7746C31.533 23.7746 35.8902 19.3988 35.8902 13.9966C35.8902 8.59785 31.533 4.21777 26.16 4.21777C20.7885 4.21777 16.4341 8.59785 16.4341 13.9966Z" fill="white"/>
</mask>
<g mask="url(#mask57_685_9977)">
<path fill-rule="evenodd" clip-rule="evenodd" d="M26.1622 19.6778C29.9622 19.6778 33.2238 20.4278 34.6159 21.4956C35.0801 20.7322 35.3438 19.8954 35.3438 19.0122C35.3438 15.4807 31.2273 12.1841 26.1622 12.1841C21.0884 12.1841 16.9797 15.4835 16.9797 19.0122C16.9797 19.8973 17.2341 20.733 17.7018 21.4956C19.095 20.4278 22.3637 19.6778 26.1622 19.6778Z" fill="#E3F2FB"/>
</g>
<mask id="mask58_685_9977" style="mask-type:luminance" maskUnits="userSpaceOnUse" x="16" y="4" width="20" height="20">
<path fill-rule="evenodd" clip-rule="evenodd" d="M16.4341 13.9966C16.4341 19.4008 20.7885 23.7746 26.1662 23.7746C31.533 23.7746 35.8902 19.3988 35.8902 13.9966C35.8902 8.59785 31.533 4.21777 26.16 4.21777C20.7885 4.21777 16.4341 8.59785 16.4341 13.9966Z" fill="white"/>
</mask>
<g mask="url(#mask58_685_9977)">
<path fill-rule="evenodd" clip-rule="evenodd" d="M26.1595 19.7024C29.9545 19.7024 33.211 20.4466 34.6012 21.506C35.0645 20.7481 35.3283 19.9184 35.3283 19.0415C35.3283 15.5379 31.2172 12.2637 26.1595 12.2637C21.0928 12.2637 16.99 15.5411 16.99 19.0415C16.99 19.9204 17.244 20.7489 17.7108 21.506C19.1022 20.4466 22.3665 19.7024 26.1595 19.7024Z" fill="#E7F4FB"/>
</g>
<mask id="mask59_685_9977" style="mask-type:luminance" maskUnits="userSpaceOnUse" x="16" y="4" width="20" height="20">
<path fill-rule="evenodd" clip-rule="evenodd" d="M16.4341 13.9966C16.4341 19.4008 20.7885 23.7746 26.1662 23.7746C31.533 23.7746 35.8902 19.3988 35.8902 13.9966C35.8902 8.59785 31.533 4.21777 26.16 4.21777C20.7885 4.21777 16.4341 8.59785 16.4341 13.9966Z" fill="white"/>
</mask>
<g mask="url(#mask59_685_9977)">
<path fill-rule="evenodd" clip-rule="evenodd" d="M26.1629 19.7269C29.9524 19.7269 33.2042 20.4652 34.5928 21.5164C35.0554 20.7644 35.3184 19.941 35.3184 19.0711C35.3184 15.595 31.2132 12.3428 26.1629 12.3428C21.1028 12.3428 17.0059 15.5982 17.0059 19.0711C17.0059 19.9433 17.2594 20.7652 17.7255 21.5164C19.1149 20.4652 22.3754 19.7269 26.1629 19.7269Z" fill="#ECF6FC"/>
</g>
<mask id="mask60_685_9977" style="mask-type:luminance" maskUnits="userSpaceOnUse" x="16" y="4" width="20" height="20">
<path fill-rule="evenodd" clip-rule="evenodd" d="M16.4341 13.9966C16.4341 19.4008 20.7885 23.7746 26.1662 23.7746C31.533 23.7746 35.8902 19.3988 35.8902 13.9966C35.8902 8.59785 31.533 4.21777 26.16 4.21777C20.7885 4.21777 16.4341 8.59785 16.4341 13.9966Z" fill="white"/>
</mask>
<g mask="url(#mask60_685_9977)">
<path fill-rule="evenodd" clip-rule="evenodd" d="M26.1606 19.752C29.9454 19.752 33.1922 20.4848 34.5784 21.5274C35.0402 20.7817 35.3028 19.9649 35.3028 19.1025C35.3028 15.6531 31.2035 12.4229 26.1606 12.4229C21.1072 12.4229 17.0168 15.6567 17.0168 19.1025C17.0168 19.9668 17.2692 20.7821 17.7354 21.5274C19.1224 20.4848 22.3785 19.752 26.1606 19.752Z" fill="#F1F8FC"/>
</g>
<mask id="mask61_685_9977" style="mask-type:luminance" maskUnits="userSpaceOnUse" x="16" y="4" width="20" height="20">
<path fill-rule="evenodd" clip-rule="evenodd" d="M16.4341 13.9966C16.4341 19.4008 20.7885 23.7746 26.1662 23.7746C31.533 23.7746 35.8902 19.3988 35.8902 13.9966C35.8902 8.59785 31.533 4.21777 26.16 4.21777C20.7885 4.21777 16.4341 8.59785 16.4341 13.9966Z" fill="white"/>
</mask>
<g mask="url(#mask61_685_9977)">
<path fill-rule="evenodd" clip-rule="evenodd" d="M26.162 19.7766C29.9417 19.7766 33.1838 20.5035 34.5677 21.5375C35.0287 20.798 35.2913 19.9879 35.2913 19.1318C35.2913 15.7103 31.1978 12.5024 26.162 12.5024C21.1156 12.5024 17.0308 15.7139 17.0308 19.1318C17.0308 19.9903 17.2832 20.7984 17.7481 21.5375C19.1336 20.5035 22.3854 19.7766 26.162 19.7766Z" fill="#F5FAFD"/>
</g>
<mask id="mask62_685_9977" style="mask-type:luminance" maskUnits="userSpaceOnUse" x="16" y="4" width="20" height="20">
<path fill-rule="evenodd" clip-rule="evenodd" d="M16.4341 13.9966C16.4341 19.4008 20.7885 23.7746 26.1662 23.7746C31.533 23.7746 35.8902 19.3988 35.8902 13.9966C35.8902 8.59785 31.533 4.21777 26.16 4.21777C20.7885 4.21777 16.4341 8.59785 16.4341 13.9966Z" fill="white"/>
</mask>
<g mask="url(#mask62_685_9977)">
<path fill-rule="evenodd" clip-rule="evenodd" d="M26.1609 19.8012C29.9356 19.8012 33.1726 20.5221 34.5549 21.5479C35.0152 20.8143 35.2773 20.0105 35.2773 19.1615C35.2773 15.7674 31.189 12.5815 26.1609 12.5815C21.1212 12.5815 17.043 15.7714 17.043 19.1615C17.043 20.0128 17.2942 20.8143 17.7587 21.5479C19.1422 20.5221 22.3898 19.8012 26.1609 19.8012Z" fill="#FAFCFD"/>
</g>
<mask id="mask63_685_9977" style="mask-type:luminance" maskUnits="userSpaceOnUse" x="16" y="4" width="20" height="20">
<path fill-rule="evenodd" clip-rule="evenodd" d="M16.4341 13.9966C16.4341 19.4008 20.7885 23.7746 26.1662 23.7746C31.533 23.7746 35.8902 19.3988 35.8902 13.9966C35.8902 8.59785 31.533 4.21777 26.16 4.21777C20.7885 4.21777 16.4341 8.59785 16.4341 13.9966Z" fill="white"/>
</mask>
<g mask="url(#mask63_685_9977)">
<path fill-rule="evenodd" clip-rule="evenodd" d="M26.1621 19.8271C29.9313 19.8271 33.1636 20.5418 34.544 21.5597C35.0034 20.832 35.2652 20.0349 35.2652 19.193C35.2652 15.826 31.1831 12.6621 26.1621 12.6621C21.1294 12.6621 17.0566 15.8299 17.0566 19.193C17.0566 20.0372 17.3079 20.832 17.7716 21.5597C19.1532 20.5418 22.3965 19.8271 26.1621 19.8271Z" fill="#FEFEFE"/>
</g>
<path fill-rule="evenodd" clip-rule="evenodd" d="M26.1617 16.4663C22.8649 16.4663 19.8041 17.0259 17.2734 17.9754C18.7902 21.3954 22.1995 23.7751 26.1683 23.7751C30.1207 23.7751 33.5285 21.3954 35.0479 17.9754C32.5247 17.0259 29.4628 16.4663 26.1617 16.4663Z" fill="#007BC3"/>
</svg>
