<svg width="53" height="28" viewBox="0 0 53 28" fill="none" xmlns="http://www.w3.org/2000/svg">
<rect x="0.833252" width="52" height="28" fill="black" fill-opacity="0.01"/>
<mask id="mask0_685_10227" style="mask-type:luminance" maskUnits="userSpaceOnUse" x="19" y="20" width="8" height="5">
<path fill-rule="evenodd" clip-rule="evenodd" d="M19.8677 20.4258H26.7611V24.5333H19.8677V20.4258Z" fill="white"/>
</mask>
<g mask="url(#mask0_685_10227)">
<path fill-rule="evenodd" clip-rule="evenodd" d="M24.0864 23.9986C23.5227 24.335 23.0126 24.5333 22.4751 24.5333C21.0904 24.5333 19.9351 23.3996 19.8677 22.0329L22.5642 20.4258L26.7612 22.3041L24.0864 23.9986Z" fill="#82B9D8"/>
</g>
<path fill-rule="evenodd" clip-rule="evenodd" d="M25.6909 17.0874L23.6849 16.2009C22.7921 15.8024 21.9441 15.4665 21.9441 14.4814C21.9441 13.9703 22.0975 13.7018 22.3433 13.436L26.5846 15.3054L25.5357 15.9124C25.243 16.0917 25.0425 16.247 25.0425 16.4715C25.0425 16.7129 25.3179 16.9179 25.6909 17.0874Z" fill="#B1D6A0"/>
<path fill-rule="evenodd" clip-rule="evenodd" d="M27.6594 7.82851L25.605 9.07581C25.4205 9.18763 25.1761 9.36335 25.1761 9.63668C25.1761 9.95039 25.6538 10.1878 26.0747 10.3875L23.5014 9.25375C22.7439 8.91918 21.9868 8.54024 21.9868 7.62751C21.9868 7.24147 22.0981 6.93175 22.2764 6.66507L27.8368 3.2666C28.5051 3.64155 29.1496 4.40608 29.1496 5.43197C29.1496 6.52929 28.5961 7.2641 27.6594 7.82851Z" fill="#82B9D8"/>
<path fill-rule="evenodd" clip-rule="evenodd" d="M32.0334 11.8472L31.5216 12.137L27.2749 10.2618L32.2103 7.28662C32.8756 7.67088 33.5316 8.42921 33.5316 9.45332C33.5316 10.5511 32.9918 11.3072 32.0334 11.8472Z" fill="#B1D6A0"/>
<path fill-rule="evenodd" clip-rule="evenodd" d="M28.4454 15.4565L30.9593 16.5605C31.9018 16.9798 32.1896 17.4777 32.1896 18.0998C32.1896 18.4574 31.9891 18.8137 31.7013 19.0596L27.4768 17.1817L28.19 16.7815C28.7967 16.4483 28.995 16.2455 28.995 16.0232C28.995 15.792 28.8539 15.6411 28.4454 15.4565Z" fill="#82B9D8"/>
<path fill-rule="evenodd" clip-rule="evenodd" d="M32.9257 24.7332C31.8546 23.9114 30.713 23.3537 29.3257 22.7223L22.9218 19.8869C21.3118 19.1711 20.2434 18.2145 20.2434 16.6029C20.2434 15.0396 20.9987 14.2804 21.9851 13.6597L22.3403 13.436C22.0951 13.7018 21.9416 13.9689 21.9416 14.4814C21.9416 15.4661 22.7892 15.8011 23.6824 16.2009L31.1352 19.4893C32.4316 20.0431 33.6185 21.0015 33.6185 22.6322C33.6185 23.5316 33.2805 24.3325 32.9257 24.7332Z" fill="#00A439"/>
<mask id="mask1_685_10227" style="mask-type:luminance" maskUnits="userSpaceOnUse" x="20" y="6" width="14" height="14">
<path fill-rule="evenodd" clip-rule="evenodd" d="M20.3774 6.66406H33.7953V19.0599H20.3774V6.66406Z" fill="white"/>
</mask>
<g mask="url(#mask1_685_10227)">
<path fill-rule="evenodd" clip-rule="evenodd" d="M32.1656 18.7697L31.699 19.0599C31.9873 18.8154 32.1878 18.4578 32.1878 18.1019C32.1878 17.4762 31.8977 16.9811 30.9575 16.5608L22.9893 13.0501C21.3793 12.3384 20.3774 11.4194 20.3774 9.81715C20.3774 8.34089 21.1132 7.37491 22.2744 6.66406C22.0952 6.93207 21.9847 7.24179 21.9847 7.62605C21.9847 8.54056 22.7431 8.91773 23.4993 9.25274L31.2453 12.6738C32.6544 13.2959 33.7955 14.238 33.7955 15.9556C33.7955 17.2979 33.1697 18.1472 32.1656 18.7697Z" fill="#007CB9"/>
</g>
</svg>
