<svg width="53" height="28" viewBox="0 0 53 28" fill="none" xmlns="http://www.w3.org/2000/svg">
<rect x="0.499756" width="52" height="28" fill="black" fill-opacity="0.01"/>
<rect x="24.178" y="9.3335" width="4.64286" height="9.33334" fill="white"/>
<path fill-rule="evenodd" clip-rule="evenodd" d="M32.5364 13.619C33.5507 12.7744 34.1574 11.7014 34.3393 10.4293C34.4588 9.59405 34.368 8.7645 34.0412 7.9631C33.5703 6.80858 32.7808 5.92778 31.6752 5.31346C30.9037 4.88486 30.0672 4.66672 29.172 4.66729L20.4542 4.66743C20.4429 4.66743 20.4316 4.66732 20.4202 4.66721C20.373 4.66676 20.3256 4.6663 20.2798 4.67369C20.1217 4.69899 20.0123 4.81328 20.0004 4.96781C19.9956 5.02957 19.9967 5.09175 19.9977 5.15393C19.9982 5.18041 19.9986 5.2069 19.9986 5.23335V22.8098C19.9986 22.8278 19.9984 22.8459 19.9982 22.8639C19.9976 22.9022 19.9971 22.9405 19.9989 22.9788C20.0082 23.1791 20.1296 23.306 20.336 23.3286C20.3802 23.3335 20.425 23.333 20.4698 23.3325C20.4834 23.3323 20.497 23.3322 20.5106 23.3322L28.9286 23.3337C29.7029 23.3337 30.4215 23.2085 31.122 22.9321C31.8493 22.6452 32.4696 22.2039 33.0018 21.6448C33.7402 20.8688 34.1921 19.9522 34.3374 18.9168C34.4558 18.0726 34.3727 17.2343 34.0414 16.4263C33.6929 15.576 33.1597 14.8625 32.4357 14.2792C32.3596 14.2178 32.2794 14.1609 32.1912 14.0983C32.1473 14.0672 32.1015 14.0347 32.0531 13.9994C32.1112 13.9539 32.1671 13.9106 32.2213 13.8687C32.3321 13.783 32.4358 13.7028 32.5364 13.619ZM26.0646 9.79748H27.6378V18.1862H27.6202H26.0646V9.79748ZM27.6199 18.1901L27.6202 18.1862C27.6202 18.1862 27.6138 18.19 27.6199 18.1901Z" fill="#281F21"/>
</svg>
