<svg width="82" height="44" viewBox="0 0 82 44" fill="none" xmlns="http://www.w3.org/2000/svg">
<rect width="82" height="44" fill="black" fill-opacity="0.01"/>
<path fill-rule="evenodd" clip-rule="evenodd" d="M57.7744 10.7715C58.187 10.7567 58.5713 11.0468 58.5713 11.4846C58.5713 11.8423 58.2226 12.1492 57.9776 12.334C56.6386 13.3862 55.0951 14.2003 53.5308 14.8531C48.9701 16.7548 43.903 17.4164 39.0243 18.0533C38.7875 18.0843 38.5511 18.1151 38.3152 18.1461C35.3307 18.5373 32.3322 18.8306 29.3275 19.024C28.215 19.0959 27.0982 18.4958 26.1644 17.9334C25.2024 17.3537 24.2765 16.5917 23.7479 15.5755C23.3077 14.7267 23.2531 13.4457 24.0297 12.7699C24.6173 12.2577 25.5228 12.2856 26.2504 12.3408C26.8293 12.3849 27.3995 12.4882 27.9698 12.5915C28.2413 12.6407 28.5129 12.6899 28.7854 12.7327C29.3805 12.8264 29.9772 12.932 30.5734 13.0376C31.3335 13.1721 32.0928 13.3065 32.8467 13.4159C40.7084 14.5611 49.1226 14.0167 56.5827 11.1522C56.6734 11.1172 56.7645 11.0782 56.8562 11.0389C57.1522 10.9122 57.4553 10.7824 57.7744 10.7715ZM46.0197 23.5764C46.2156 24.0197 46.3482 24.494 46.4305 24.9863C46.6441 26.2623 46.5195 27.6468 46.3003 28.8559C46.1388 29.7406 45.9019 30.6087 45.625 31.4612C44.8808 33.7478 43.7929 35.9706 42.0978 37.6936C41.8111 37.9857 41.4574 38.2523 41.0307 38.0774C40.9288 38.0353 40.8349 37.9696 40.7735 37.8784C40.6502 37.6879 40.7226 37.4459 40.7844 37.2393C40.7928 37.2112 40.801 37.1839 40.8085 37.1573C40.8895 36.8696 40.9687 36.5819 41.0443 36.293C41.7835 33.4868 42.4735 30.4617 42.3342 27.5402C42.3022 26.8699 42.2237 26.1867 41.9326 25.584C41.641 24.9807 41.1026 24.4655 40.4481 24.3595C40.073 24.2975 39.6825 24.3737 39.3418 24.5418C39.1797 24.6211 39.0274 24.7222 38.8979 24.8481C38.6848 25.0539 38.5387 25.3218 38.435 25.5995C38.1096 26.4719 38.2238 27.3492 38.3723 28.242C38.4896 28.9396 38.3772 29.7233 37.7467 30.1344C37.258 30.4524 36.6127 30.476 36.07 30.2652C35.5267 30.0525 35.0834 29.6253 34.777 29.1268C33.8334 27.596 33.8162 25.3416 34.3374 23.6644C34.4455 23.3216 34.5763 22.9861 34.7371 22.6662C35.2129 21.7182 35.9515 20.9314 36.8485 20.3827C38.8303 19.1705 41.2518 19.1612 43.2551 20.343C44.5432 21.1019 45.4033 22.2316 46.0197 23.5764Z" fill="#009490"/>
<path fill-rule="evenodd" clip-rule="evenodd" d="M37.1769 8.90356C37.1769 10.541 38.4914 11.8666 40.111 11.8666C41.7318 11.8666 43.0469 10.541 43.0469 8.90356C43.0469 8.65989 42.991 8.41498 42.8879 8.19302C42.6361 7.65484 42.3531 7.39381 42.3807 6.74775C42.4188 5.87724 41.3131 5.8667 40.7194 5.8667C40.0698 5.8667 39.3816 5.95722 38.7959 6.25483C38.328 6.49106 37.9271 6.85625 37.6435 7.29957C37.3506 7.75776 37.1898 8.29222 37.1781 8.83536C37.1769 8.8583 37.1769 8.88062 37.1769 8.90356Z" fill="#EC1650"/>
</svg>
